<svg width="139" height="65" viewBox="0 0 139 65" fill="none" xmlns="http://www.w3.org/2000/svg">
<g clipPath="url(#clip0_136_408)">
<path d="M52.7224 6.09322C52.7224 5.86024 52.8506 5.7448 53.1069 5.7448C53.2939 5.7448 53.4809 5.82666 53.6658 5.98828V5.31242C53.4641 5.1487 53.2456 5.06894 53.0124 5.06894C52.7561 5.06894 52.5355 5.15919 52.3548 5.3355C52.172 5.51391 52.0816 5.72801 52.0816 5.97568C52.0816 6.1394 52.1237 6.29682 52.2098 6.45424H51.861L51.4871 7.1301H53.6553L54.0293 6.45424H52.8758C52.775 6.3304 52.7245 6.20866 52.7245 6.09322H52.7224Z" fill="black"/>
<path d="M60.3281 16.9573C60.8261 16.5229 61.1244 15.9331 61.2252 15.1879C61.4501 15.2572 61.6959 15.2929 61.9606 15.2929H76.6004C77.2054 15.2929 77.6992 15.125 78.0816 14.7912C78.5165 14.3945 78.735 13.8488 78.735 13.1499V12.9987C78.735 11.9892 78.3379 11.2167 77.5458 10.6815C77.1025 10.3793 76.5898 10.2051 76.0079 10.1568L78.1299 7.78078H76.6487L74.283 10.4128V11.8212C74.7179 11.6659 75.1297 11.5883 75.5183 11.5883C76.0394 11.5883 76.4617 11.7205 76.7852 11.985C77.1067 12.2494 77.2664 12.5895 77.2664 13.0092V13.0785C77.2664 13.6137 76.9953 13.8824 76.4512 13.8824H62.1035C61.8072 13.8824 61.5992 13.8194 61.4732 13.6914C61.3492 13.5634 61.2862 13.3451 61.2862 13.0428L61.2904 9.66143C60.8008 9.61525 60.2462 10.4066 59.8176 10.6479V14.6611C59.8176 15.1502 59.6999 15.5343 59.4646 15.8092C59.2293 16.0842 58.8931 16.2206 58.4666 16.2206C58.0779 16.2206 57.6809 16.1073 57.2775 15.8827V17.163C57.7439 17.4107 58.2208 17.5367 58.7103 17.5367C59.3406 17.5367 59.8806 17.3436 60.3302 16.9552L60.3281 16.9573Z" fill="black"/>
<path d="M4.80288 43.8238L5.61177 45.8828H7.27996L4.21881 38.2364H3.34269L0 45.8828H0.792077L1.6745 43.8238H4.80499H4.80288ZM3.30067 40.0898L4.51925 43.1206H1.98755L3.30277 40.0898H3.30067Z" fill="black"/>
<path d="M20.1023 45.2867C19.9595 45.1671 19.7893 44.7746 19.7893 44.1722V40.6481H18.2135V44.6214C18.0833 44.8082 17.7702 45.1503 17.2113 45.1503C16.6525 45.1503 16.3184 44.804 16.3184 43.786V40.6481H14.7427V43.8784C14.7427 45.2825 15.3457 46.0172 16.5516 46.0172C17.4172 46.0172 17.8606 45.6415 18.1631 45.3014L18.2135 45.3308C18.2829 45.6142 18.5203 45.9227 18.7325 46.0193C19.2115 46.0088 19.9279 45.5932 20.1044 45.2909L20.1023 45.2867Z" fill="black"/>
<path d="M30.973 41.9536C30.973 38.9857 28.8384 38.2343 26.4663 38.2343H24.2876V45.8808H26.4726C29.0842 45.8808 30.9751 44.7389 30.9751 41.9515L30.973 41.9536ZM26.5756 45.1713H25.8928V38.9396H26.5294C28.4539 38.9396 29.3132 39.9638 29.3132 41.9872C29.3132 44.0106 28.4539 45.1713 26.5756 45.1713Z" fill="black"/>
<path d="M41.896 45.3266L41.9527 45.356C41.9989 45.6226 42.146 45.8849 42.3456 46.0151C42.7721 46.0382 43.5474 45.7884 43.7848 45.4756C43.6818 45.3854 43.5221 45.2133 43.5221 44.4975V42.5539C43.5221 41.1434 42.8225 40.5179 41.314 40.5179C39.8979 40.5179 39.213 41.1371 39.0827 41.2967C39.0764 41.5191 39.379 41.8529 39.5723 41.8319C39.7193 41.6892 40.2488 41.2169 41.0283 41.2169C41.6081 41.2169 41.9506 41.5296 41.9506 42.3881V42.9065C41.8371 42.8897 41.627 42.8604 41.398 42.8604C39.6458 42.8604 38.6772 43.5425 38.6772 44.634C38.6772 45.7254 39.3496 46.0151 40.2257 46.0151C41.1018 46.0151 41.6249 45.652 41.8939 45.3266H41.896ZM41.4632 43.4439C41.6859 43.4439 41.8729 43.4837 41.9527 43.5068V44.6885C41.8224 44.9278 41.4338 45.2343 40.9862 45.2343C40.5135 45.2343 40.2866 44.8879 40.2866 44.3926C40.2866 43.8406 40.6732 43.4439 41.4653 43.4439H41.4632Z" fill="black"/>
<path d="M64.4607 45.8828L61.3996 38.2364H60.5234L57.1829 45.8828H57.9749L58.8574 43.8238H61.9878L62.7967 45.8828H64.4649H64.4607ZM59.1683 43.1206L60.4835 40.0898L61.7021 43.1206H59.1704H59.1683Z" fill="black"/>
<path d="M68.9464 40.6859C68.8897 40.6292 68.6901 40.5159 68.2699 40.5159C67.4673 40.5159 67.1311 41.0553 67.0009 41.3848L66.9273 41.3785C66.8643 40.9986 66.6605 40.6103 66.4546 40.5138C65.9714 40.5201 65.2591 40.9336 65.0826 41.2421C65.2192 41.3722 65.3957 41.7542 65.3957 42.3566V45.8808H66.9672V42.407C67.0744 42.1635 67.3832 41.8886 67.9799 41.8886C68.3392 41.8886 68.5367 42.0145 68.5829 42.0586C68.896 41.8886 69.0325 41.0133 68.9464 40.6817V40.6859Z" fill="black"/>
<path d="M74.0623 44.4954V42.5518C74.0623 41.1413 73.3627 40.5159 71.8542 40.5159C70.4381 40.5159 69.7532 41.135 69.6229 41.2946C69.6166 41.5171 69.9191 41.8508 70.1124 41.8298C70.2595 41.6871 70.789 41.2148 71.5684 41.2148C72.1483 41.2148 72.4908 41.5275 72.4908 42.386V42.9044C72.3773 42.8877 72.1672 42.8583 71.9382 42.8583C70.186 42.8583 69.2174 43.5404 69.2174 44.6319C69.2174 45.7233 69.8897 46.013 70.7658 46.013C71.642 46.013 72.1651 45.6499 72.434 45.3245L72.4908 45.3539C72.537 45.6205 72.6841 45.8828 72.8836 46.013C73.3101 46.0361 74.0854 45.7863 74.3228 45.4736C74.2199 45.3833 74.0602 45.2112 74.0602 44.4954H74.0623ZM72.4908 44.6885C72.3605 44.9278 71.9718 45.2343 71.5243 45.2343C71.0516 45.2343 70.8247 44.8879 70.8247 44.3926C70.8247 43.8406 71.2113 43.4439 72.0033 43.4439C72.226 43.4439 72.413 43.4838 72.4929 43.5068V44.6885H72.4908Z" fill="black"/>
<path d="M88.1075 46.013C89.3198 46.013 89.866 45.6142 90.0887 45.4379C90.1223 45.2217 89.866 44.8817 89.6853 44.8586C89.5593 44.9719 89.1391 45.3308 88.3869 45.3308C87.5171 45.3308 86.9246 44.762 86.9246 43.3074C86.9246 41.7437 87.4709 41.198 88.3197 41.198C89.0025 41.198 89.3555 41.601 89.4458 41.7164C89.6685 41.6997 89.969 41.4331 89.9249 41.1413C89.782 40.9944 89.3156 40.5159 88.1327 40.5159C86.4036 40.5159 85.309 41.5737 85.309 43.3809C85.309 45.3035 86.5275 46.013 88.1096 46.013H88.1075Z" fill="black"/>
<path d="M11.0975 55.962V54.0183C11.0975 52.6078 10.3978 51.9824 8.88932 51.9824C7.47324 51.9824 6.78832 52.6015 6.65806 52.7611C6.65175 52.9836 6.9543 53.3173 7.14759 53.2963C7.29466 53.1536 7.82411 52.6813 8.60358 52.6813C9.18346 52.6813 9.52592 52.9941 9.52592 53.8525V54.371C9.41247 54.3542 9.20237 54.3248 8.97336 54.3248C7.22112 54.3248 6.25256 55.0069 6.25256 56.0984C6.25256 57.1898 6.92488 57.4795 7.801 57.4795C8.67712 57.4795 9.20026 57.1164 9.46919 56.791L9.52592 56.8204C9.57214 57.087 9.71921 57.3494 9.91881 57.4795C10.3453 57.5026 11.1206 57.2528 11.358 56.9401C11.255 56.8498 11.0954 56.6777 11.0954 55.962H11.0975ZM9.52802 56.1551C9.39776 56.3943 9.00907 56.7008 8.56156 56.7008C8.08884 56.7008 7.86193 56.3545 7.86193 55.8591C7.86193 55.3071 8.24851 54.9104 9.04059 54.9104C9.26329 54.9104 9.45028 54.9503 9.53012 54.9734V56.1551H9.52802Z" fill="black"/>
<path d="M16.2008 51.9824C15.331 51.9824 14.8457 52.3455 14.5221 52.6939L14.4654 52.6708C14.4024 52.3812 14.1587 52.0789 13.9528 51.9824C13.4695 51.9887 12.7573 52.4022 12.5808 52.7107C12.7237 52.8303 12.8939 53.2228 12.8939 53.8252V57.3494H14.4654V53.3698C14.5957 53.1872 14.9781 52.8471 15.5348 52.8471C16.121 52.8471 16.4803 53.1935 16.4803 54.2051V57.3494H18.056V54.1191C18.056 52.7149 17.4194 51.9803 16.2008 51.9803V51.9824Z" fill="black"/>
<path d="M19.4531 54.9503C19.4531 56.7868 20.3692 57.4795 21.594 57.4795C22.4828 57.4795 22.9534 57.0807 23.1299 56.9044L23.1866 56.938V57.5572C23.1866 59.2804 22.4975 59.6372 21.5814 59.6372C20.6087 59.6372 20.1423 59.1314 20.0456 59.018C19.8187 59.0516 19.5099 59.3937 19.5162 59.6372C19.6863 59.8072 20.262 60.3362 21.6109 60.3362C23.1425 60.3362 24.7645 59.7736 24.7645 57.0618V52.3665C24.588 52.2468 23.8715 51.9803 22.6361 51.9803C20.6444 51.9803 19.4552 53.0654 19.4552 54.9482L19.4531 54.9503ZM23.1866 56.2474C23.0731 56.4069 22.7538 56.6672 22.2306 56.6672C21.6214 56.6672 21.0751 56.2348 21.0751 54.7677C21.0751 53.3005 21.6613 52.5911 22.5269 52.5911C22.903 52.5911 23.09 52.6813 23.1866 52.738V56.2453V56.2474Z" fill="black"/>
<path d="M31.5717 52.1125H29.996V56.0858C29.8657 56.2726 29.5527 56.6147 28.9938 56.6147C28.435 56.6147 28.1009 56.2684 28.1009 55.2504V52.1125H26.5251V55.3428C26.5251 56.747 27.1281 57.4816 28.3341 57.4816C29.1997 57.4816 29.643 57.1059 29.9456 56.7659L29.996 56.7952C30.0653 57.0786 30.3027 57.3871 30.5149 57.4837C30.994 57.4732 31.7104 57.0576 31.8869 56.7554C31.744 56.6357 31.5738 56.2432 31.5738 55.6408V52.1167L31.5717 52.1125Z" fill="black"/>
<path d="M37.8074 55.962V54.0183C37.8074 52.6078 37.1078 51.9824 35.5993 51.9824C34.1832 51.9824 33.4983 52.6015 33.368 52.7611C33.3617 52.9836 33.6643 53.3173 33.8575 53.2963C34.0046 53.1536 34.5341 52.6813 35.3135 52.6813C35.8934 52.6813 36.2359 52.9941 36.2359 53.8525V54.371C36.1224 54.3542 35.9123 54.3248 35.6833 54.3248C33.9311 54.3248 32.9625 55.0069 32.9625 56.0984C32.9625 57.1898 33.6348 57.4795 34.511 57.4795C35.3871 57.4795 35.9102 57.1164 36.1792 56.791L36.2359 56.8204C36.2821 57.087 36.4292 57.3494 36.6288 57.4795C37.0553 57.5026 37.8305 57.2528 38.068 56.9401C37.965 56.8498 37.8053 56.6777 37.8053 55.962H37.8074ZM36.2359 56.1551C36.1056 56.3943 35.7169 56.7008 35.2694 56.7008C34.7967 56.7008 34.5698 56.3545 34.5698 55.8591C34.5698 55.3071 34.9564 54.9104 35.7484 54.9104C35.9712 54.9104 36.1581 54.9503 36.238 54.9734V56.1551H36.2359Z" fill="black"/>
<path d="M39.1689 54.9503C39.1689 56.7868 40.085 57.4795 41.3099 57.4795C42.1986 57.4795 42.6692 57.0807 42.8457 56.9044L42.9024 56.938V57.5572C42.9024 59.2804 42.2133 59.6372 41.2973 59.6372C40.3245 59.6372 39.8581 59.1314 39.7614 59.018C39.5345 59.0516 39.2257 59.3937 39.232 59.6372C39.4022 59.8072 39.9778 60.3362 41.3267 60.3362C42.8583 60.3362 44.4803 59.7736 44.4803 57.0618V52.3665C44.3038 52.2468 43.5873 51.9803 42.352 51.9803C40.3602 51.9803 39.171 53.0654 39.171 54.9482L39.1689 54.9503ZM42.9024 56.2474C42.789 56.4069 42.4696 56.6672 41.9465 56.6672C41.3372 56.6672 40.7909 56.2348 40.7909 54.7677C40.7909 53.3005 41.3771 52.5911 42.2427 52.5911C42.6188 52.5911 42.8058 52.6813 42.9024 52.738V56.2453V56.2474Z" fill="black"/>
<path d="M50.7034 56.1446C50.4408 56.3838 49.9303 56.7994 49.0415 56.7994C48.052 56.7994 47.4931 56.2075 47.4931 54.8726H51.1194C51.1194 53.418 50.59 51.9845 48.5919 51.9845C46.7872 51.9845 45.8774 53.1158 45.8774 54.8096C45.8774 56.6231 47.0498 57.4816 48.802 57.4816C50.2475 57.4816 50.8736 56.9527 51.1573 56.6903C51.1573 56.5035 50.9072 56.1551 50.7013 56.1446H50.7034ZM48.5394 52.5911C49.1718 52.5911 49.4323 53.227 49.4323 54.2408H47.4973C47.5267 53.1767 47.8902 52.5911 48.5394 52.5911Z" fill="black"/>
<path d="M60.9415 55.8822C60.7251 56.132 60.1221 56.7742 58.9603 56.7742C57.5715 56.7742 56.8488 55.6702 56.8488 53.4537C56.8488 51.2372 57.6577 50.2759 59.017 50.2759C60.036 50.2759 60.5318 50.8615 60.6558 51.0273C60.9058 51.0273 61.2483 50.7545 61.2083 50.4354C61.0718 50.2654 60.4793 49.5707 58.8573 49.5707C56.6387 49.5707 55.1869 50.9581 55.1869 53.6699C55.1869 56.3817 56.5252 57.4795 58.8174 57.4795C60.5087 57.4795 61.2819 56.6441 61.4752 56.4111C61.4815 56.1215 61.1558 55.8822 60.9394 55.8822H60.9415Z" fill="black"/>
<path d="M67.0913 56.1446C66.8286 56.3838 66.3181 56.7994 65.4294 56.7994C64.4398 56.7994 63.8809 56.2075 63.8809 54.8726H67.5073C67.5073 53.418 66.9778 51.9845 64.9798 51.9845C63.175 51.9845 62.2653 53.1158 62.2653 54.8096C62.2653 56.6231 63.4376 57.4816 65.1899 57.4816C66.6353 57.4816 67.2614 56.9527 67.5451 56.6903C67.5451 56.5035 67.2951 56.1551 67.0892 56.1446H67.0913ZM64.9272 52.5911C65.5596 52.5911 65.8202 53.227 65.8202 54.2408H63.8851C63.9145 53.1767 64.278 52.5911 64.9272 52.5911Z" fill="black"/>
<path d="M72.2597 51.9824C71.3899 51.9824 70.9045 52.3455 70.581 52.6939L70.5242 52.6708C70.4612 52.3812 70.2175 52.0789 70.0116 51.9824C69.5284 51.9887 68.8161 52.4022 68.6396 52.7107C68.7825 52.8303 68.9527 53.2228 68.9527 53.8252V57.3494H70.5242V53.3698C70.6545 53.1872 71.0369 52.8471 71.5937 52.8471C72.1798 52.8471 72.5391 53.1935 72.5391 54.2051V57.3494H74.1149V54.1191C74.1149 52.7149 73.4782 51.9803 72.2597 51.9803V51.9824Z" fill="black"/>
<path d="M79.2349 56.2579C79.0689 56.4447 78.7559 56.7805 78.3126 56.7805C77.8693 56.7805 77.5268 56.5644 77.5268 55.2063V52.7947H79.445C79.5312 52.6876 79.5186 52.2258 79.445 52.1125H77.5268V50.7083L77.3797 50.5425C76.7999 50.5425 75.9973 50.8091 75.9006 50.9623C75.9406 51.2519 75.9574 51.7473 75.9574 52.1104H75.2052C75.1023 52.2363 75.1191 52.6897 75.2052 52.7926H75.9574V55.4414C75.9574 56.8918 76.573 57.4774 77.9659 57.4774C79.0416 57.4774 79.4849 56.9988 79.7139 56.7449C79.7202 56.535 79.4303 56.2621 79.2349 56.2558V56.2579Z" fill="black"/>
<path d="M83.5127 51.9824C82.7101 51.9824 82.3739 52.5218 82.2437 52.8513L82.1701 52.845C82.1071 52.4651 81.9033 52.0768 81.6974 51.9803C81.2142 51.9866 80.5019 52.4001 80.3254 52.7086C80.462 52.8387 80.6385 53.2208 80.6385 53.8231V57.3473H82.21V53.8735C82.3172 53.63 82.626 53.3551 83.2227 53.3551C83.582 53.3551 83.7795 53.481 83.8257 53.5251C84.1388 53.3551 84.2753 52.4798 84.1892 52.1482C84.1324 52.0915 83.9329 51.9782 83.5127 51.9782V51.9824Z" fill="black"/>
<path d="M89.4564 56.1446C89.1937 56.3838 88.6832 56.7994 87.7945 56.7994C86.8049 56.7994 86.246 56.2075 86.246 54.8726H89.8724C89.8724 53.418 89.3429 51.9845 87.3449 51.9845C85.5401 51.9845 84.6304 53.1158 84.6304 54.8096C84.6304 56.6231 85.8027 57.4816 87.555 57.4816C89.0005 57.4816 89.6265 56.9527 89.9102 56.6903C89.9102 56.5035 89.6602 56.1551 89.4543 56.1446H89.4564ZM87.2944 52.5911C87.9268 52.5911 88.1874 53.227 88.1874 54.2408H86.2523C86.2818 53.1767 86.6452 52.5911 87.2944 52.5911Z" fill="black"/>
<path d="M51.9241 8.63504V14.9004C51.9241 15.9352 52.2833 16.3612 52.5145 16.4914C52.9746 16.4704 53.6385 16.1471 53.794 15.8218C53.6112 15.6518 53.3948 15.253 53.3948 14.5079V7.64853C52.9073 7.60026 52.3506 8.39366 51.9241 8.63504Z" fill="black"/>
<path d="M53.4011 22.1312C52.9137 22.083 52.3569 22.8764 51.9304 23.1177V29.3831C51.9304 30.4178 52.2897 30.8439 52.5208 30.9741C52.9809 30.9531 53.6448 30.6298 53.8003 30.3045C53.6175 30.1345 53.4011 29.7357 53.4011 28.9906V22.1312Z" fill="black"/>
<path d="M9.77801 41.0847L9.71498 41.0511L9.70868 36.9707C9.18973 36.9225 8.59725 37.7159 8.14343 37.9572V45.6226C8.31992 45.7485 9.03005 46.0151 10.2591 46.0151C12.2572 46.0151 13.4527 44.9299 13.4527 43.0472C13.4527 41.1644 12.5198 40.5179 11.3475 40.5179C10.402 40.5179 9.95239 40.9167 9.77591 41.0868L9.77801 41.0847ZM11.8328 43.2382C11.8328 44.7326 11.2235 45.398 10.3936 45.398C10.0175 45.398 9.81373 45.3119 9.71708 45.2511V41.7437C9.83684 41.5905 10.1499 41.3281 10.6793 41.3281C11.2886 41.3281 11.8349 41.7605 11.8349 43.2382H11.8328Z" fill="black"/>
<path d="M50.4429 43.0451C50.4429 41.2085 49.51 40.5158 48.3377 40.5158C47.3922 40.5158 46.9426 40.9146 46.7661 41.0847L46.7031 41.0511V36.9707C46.1821 36.9225 45.5875 37.7159 45.1337 37.9572V45.6226C45.3102 45.7485 46.0203 46.0151 47.2494 46.0151C49.2474 46.0151 50.4429 44.9299 50.4429 43.0472V43.0451ZM46.7052 41.7437C46.825 41.5905 47.138 41.3281 47.6675 41.3281C48.2768 41.3281 48.823 41.7605 48.823 43.2382C48.823 44.7158 48.2137 45.398 47.3838 45.398C47.0078 45.398 46.804 45.3119 46.7073 45.2511V41.7437H46.7052Z" fill="black"/>
<path d="M78.8757 40.5158C77.9302 40.5158 77.4806 40.9146 77.3041 41.0847L77.2411 41.0511V36.9707C76.7201 36.9225 76.1255 37.7159 75.6696 37.9572V45.6226C75.846 45.7485 76.5583 46.0151 77.7874 46.0151C79.7854 46.0151 80.9809 44.9299 80.9809 43.0472C80.9809 41.1644 80.048 40.5179 78.8757 40.5179V40.5158ZM77.9197 45.4001C77.5436 45.4001 77.3398 45.314 77.2432 45.2532V41.7458C77.363 41.5926 77.676 41.3302 78.2055 41.3302C78.8148 41.3302 79.361 41.7626 79.361 43.2403C79.361 44.7179 78.7517 45.4001 77.9218 45.4001H77.9197Z" fill="black"/>
<path d="M51.8212 45.8829H53.3906V40.6439C52.8696 40.5956 52.275 41.389 51.8212 41.6304V45.8829Z" fill="black"/>
<path d="M82.3591 45.8829H83.9286V40.6439C83.4075 40.5956 82.8129 41.389 82.3591 41.6304V45.8829Z" fill="black"/>
<path d="M33.887 45.8829V41.9033C34.0172 41.7206 34.3996 41.3806 34.9564 41.3806C35.5426 41.3806 35.906 41.7269 35.906 42.7386V45.8829H37.4776V42.6526C37.4776 41.2484 36.841 40.5138 35.6224 40.5138C34.7568 40.5138 34.2736 40.8769 33.95 41.2253L33.887 41.2022V36.9686C33.3659 36.9204 32.7713 37.7138 32.3154 37.9551V45.8807H33.887V45.8829Z" fill="black"/>
<path d="M2.41192 56.6168V49.7029C1.89298 49.6546 1.3005 50.448 0.84668 50.6894V57.3515H5.53611C5.65587 57.1751 5.65587 56.7763 5.53611 56.6189H2.41192V56.6168Z" fill="black"/>
<path d="M31.7671 27.5969C31.8217 27.6598 31.8868 27.7396 31.9772 27.8424C32.2482 28.1615 32.452 28.3777 32.5823 28.4952C32.8155 28.7135 33.1075 28.9423 33.4563 29.1816H29.5484C29.2522 29.1816 29.0442 29.1186 28.9181 28.9906C28.7941 28.8625 28.7311 28.6442 28.7311 28.342V24.9564C28.2416 24.9102 27.6869 25.7015 27.2625 25.9429V29.9603C27.2625 30.4493 27.1428 30.8334 26.9053 31.1084C26.6679 31.3834 26.3381 31.5198 25.9116 31.5198C25.5229 31.5198 25.1258 31.4064 24.7224 31.1819V32.4622C25.1888 32.7099 25.6658 32.8358 26.1553 32.8358C26.7856 32.8358 27.3255 32.6427 27.7752 32.2544C28.2731 31.8199 28.5714 31.2301 28.6723 30.485C28.8971 30.5543 29.1429 30.59 29.4055 30.59H33.6285C34.0046 30.59 34.3828 30.4934 34.7484 30.2982C35.0971 30.4913 35.4711 30.59 35.8682 30.59H47.4657C48.1654 30.59 48.7242 30.3843 49.1444 29.9729C49.6024 29.5237 49.8315 28.9213 49.8315 28.1678L49.8441 22.1081C49.3545 22.062 48.7999 22.8533 48.3755 23.0988V28.1573C48.3755 28.5309 48.2977 28.7933 48.1465 28.9486C47.9952 29.1039 47.7389 29.1816 47.3859 29.1816H36.0111C36.6561 28.7555 37.2381 28.2266 37.7591 27.599V26.9588C37.3977 26.432 36.946 26.0122 36.4061 25.6973C35.8577 25.3825 35.3093 25.223 34.7505 25.223C34.1916 25.223 33.6285 25.3783 33.0886 25.6889C32.5486 25.9996 32.1095 26.4152 31.7671 26.9357V27.599V27.5969ZM34.7169 26.5831C35.1287 26.5831 35.5678 26.8014 36.0342 27.2359C35.7548 27.7018 35.3241 28.1636 34.74 28.6212C34.2042 28.2329 33.784 27.7711 33.4815 27.2359C33.908 26.8014 34.3198 26.5831 34.7169 26.5831Z" fill="black"/>
<path d="M35.8388 15.211C35.9082 15.2194 36.009 15.2299 36.1414 15.2467C36.2737 15.2551 36.3704 15.2614 36.4334 15.2698C36.4103 15.5175 36.2695 15.7316 36.0174 15.91C35.7653 16.0884 35.4774 16.1786 35.1518 16.1786C34.7316 16.1786 34.3135 16.059 33.8933 15.8176V16.0002C33.8933 16.7957 34.5152 17.48 35.3115 17.4821H35.3262C35.9481 17.4821 36.4922 17.3121 36.9587 16.9699C37.5259 16.5501 37.8369 15.9918 37.8915 15.2929H47.6864C48.2998 15.2929 48.7978 15.1187 49.1781 14.7681C49.613 14.3714 49.8315 13.8215 49.8315 13.1142L49.8357 9.66351C49.3461 9.61734 48.7894 10.4086 48.3629 10.65V13.0449C48.3629 13.3472 48.2998 13.5654 48.1759 13.6935C48.0519 13.8215 47.8418 13.8845 47.5456 13.8845H37.8915V12.0794C37.8915 11.4665 37.7234 10.9691 37.3894 10.5891C37.0007 10.1463 36.4607 9.92588 35.7695 9.92588C35.0783 9.92588 34.5488 10.1442 34.137 10.5787C33.6706 11.0761 33.4374 11.7499 33.4374 12.6041C33.4374 13.2569 33.6202 13.811 33.9857 14.2686C34.4206 14.8122 35.0383 15.1271 35.8388 15.211ZM35.7695 11.286C36.2128 11.286 36.4334 11.5421 36.4334 12.0542V13.8698C36.1918 13.8551 36.0174 13.8341 35.9082 13.811C35.2253 13.725 34.8829 13.3073 34.8829 12.5538C34.8829 11.7079 35.1791 11.2839 35.7695 11.2839V11.286Z" fill="black"/>
<path d="M60.3448 7.42131L59.7346 8.03162C59.6714 8.09477 59.6715 8.1971 59.7347 8.26019L60.3471 8.87135C60.4103 8.93443 60.5127 8.93437 60.5759 8.87122L61.1862 8.26091C61.2493 8.19776 61.2492 8.09543 61.186 8.03235L60.5736 7.42119C60.5104 7.35811 60.408 7.35816 60.3448 7.42131Z" fill="black"/>
<path d="M73.025 22.7426L72.4148 23.353C72.3516 23.4161 72.3517 23.5184 72.4149 23.5815L73.0273 24.1927C73.0905 24.2558 73.1929 24.2557 73.2561 24.1926L73.8663 23.5822C73.9295 23.5191 73.9294 23.4168 73.8662 23.3537L73.2538 22.7425C73.1906 22.6794 73.0882 22.6795 73.025 22.7426Z" fill="black"/>
<path d="M48.2354 17.0064L48.8473 16.3947C48.9097 16.3323 49.0122 16.3308 49.0761 16.3946L49.6899 17.0074C49.7523 17.0697 49.7538 17.1721 49.69 17.2359L49.0781 17.8476C49.0157 17.91 48.9132 17.9115 48.8493 17.8477L48.2355 17.2349C48.1731 17.1726 48.1716 17.0702 48.2354 17.0064Z" fill="black"/>
<path d="M82.4249 38.3706L83.0366 37.7588C83.099 37.6964 83.2015 37.6949 83.2654 37.7587L83.8793 38.3713C83.9417 38.4336 83.9433 38.536 83.8794 38.5999L83.2677 39.2117C83.2053 39.2741 83.1028 39.2756 83.0389 39.2118L82.425 38.5992C82.3626 38.5369 82.361 38.4345 82.4249 38.3706Z" fill="black"/>
<path d="M52.4918 37.7609L51.8815 38.3712C51.8184 38.4344 51.8185 38.5367 51.8817 38.5998L52.4941 39.2109C52.5573 39.274 52.6597 39.274 52.7229 39.2108L53.3331 38.6005C53.3963 38.5374 53.3962 38.435 53.333 38.3719L52.7206 37.7608C52.6574 37.6977 52.555 37.6978 52.4918 37.7609Z" fill="black"/>
<path d="M23.7644 24.9564C23.2791 24.9102 22.7223 25.7015 22.2958 25.9429L22.3 28.342C22.3 28.6442 22.237 28.8625 22.113 28.9906C21.9849 29.1186 21.779 29.1816 21.4827 29.1816H19.9049C19.6107 29.1816 19.4006 29.1186 19.2746 28.9906C19.1506 28.8625 19.0876 28.6442 19.0876 28.342V24.9564C18.5981 24.9102 18.0434 25.7015 17.6148 25.9429L17.619 28.342C17.619 28.6442 17.556 28.8625 17.432 28.9906C17.3081 29.1186 17.098 29.1816 16.8017 29.1816H5.94375C5.64751 29.1816 5.43531 29.1186 5.30715 28.9906C5.17899 28.8625 5.11596 28.6442 5.11596 28.342V24.4653C5.10125 24.4653 5.08864 24.4611 5.07394 24.4611C4.59491 24.4611 4.05915 25.2188 3.64316 25.4518V25.5336C3.40574 25.4287 3.14522 25.3741 2.86579 25.3741C2.31322 25.3741 1.82789 25.5756 1.4098 25.9786C0.911858 26.4593 0.66394 27.0847 0.66394 27.8529C0.66394 28.4742 0.838323 29.0053 1.18919 29.4481C1.61569 29.9834 2.18716 30.252 2.9015 30.252C3.38263 30.252 3.79023 30.124 4.12429 29.8679C4.52137 30.3486 5.08024 30.59 5.80298 30.59H16.9446C17.5119 30.59 17.9825 30.4388 18.3544 30.1366C18.7283 30.4388 19.1969 30.59 19.7641 30.59H21.6214C22.2349 30.59 22.7328 30.4158 23.1131 30.0652C23.5438 29.6685 23.7665 29.1186 23.7665 28.4113L23.7623 24.9564H23.7644ZM2.98344 29.0053C2.71241 29.0053 2.49811 28.9045 2.34264 28.703C2.18716 28.5015 2.10943 28.2287 2.10943 27.8886C2.10943 27.5486 2.18716 27.2715 2.34684 27.0616C2.50652 26.8518 2.71662 26.7468 2.97294 26.7468C3.22926 26.7468 3.45827 26.8329 3.65997 27.0029V28.4113C3.65997 28.5435 3.66417 28.6401 3.67257 28.703C3.50869 28.9045 3.27968 29.0053 2.98554 29.0053H2.98344Z" fill="black"/>
<path d="M3.23201 23.1163L3.84377 22.5045C3.90613 22.4421 4.00864 22.4406 4.07256 22.5043L4.68644 23.117C4.74887 23.1793 4.75041 23.2817 4.68656 23.3456L4.0748 23.9574C4.01244 24.0197 3.90993 24.0213 3.84602 23.9575L3.23213 23.3448C3.1697 23.2825 3.16816 23.1801 3.23201 23.1163Z" fill="black"/>
<path d="M1.65948 23.4058L2.27113 22.7939C2.33348 22.7316 2.43599 22.73 2.49992 22.7938L3.11391 23.4063C3.17635 23.4686 3.17791 23.571 3.11407 23.6349L2.50242 24.2468C2.44007 24.3092 2.33756 24.3107 2.27363 24.2469L1.66113 23.6359C1.59869 23.5736 1.59713 23.4712 1.66097 23.4073L1.65948 23.4058Z" fill="black"/>
<path d="M4.55293 19.182L5.16469 18.5702C5.22706 18.5078 5.32956 18.5062 5.39348 18.57L6.00737 19.1827C6.06979 19.245 6.07133 19.3474 6.00748 19.4112L5.39573 20.023C5.33336 20.0854 5.23085 20.0869 5.16694 20.0232L4.55305 19.4105C4.49062 19.3482 4.48908 19.2458 4.55293 19.182Z" fill="black"/>
<path d="M2.97833 19.4704L3.58998 18.8585C3.65233 18.7961 3.75484 18.7945 3.81877 18.8583L4.43276 19.4708C4.4952 19.5331 4.49676 19.6355 4.43292 19.6994L3.82127 20.3113C3.75891 20.3737 3.65641 20.3752 3.59248 20.3115L2.97997 19.7004C2.91753 19.6381 2.91598 19.5357 2.97981 19.4719L2.97833 19.4704Z" fill="black"/>
<path d="M86.2376 30.5879H87.5465C88.2419 30.5879 88.8008 30.3822 89.221 29.9708C89.679 29.5216 89.9122 28.9192 89.9122 28.1657L89.908 22.106C89.4227 22.0599 88.8659 22.8512 88.4394 23.0967L88.4542 28.1552C88.4542 28.5288 88.3764 28.7912 88.2251 28.9465C88.0739 29.1018 87.8175 29.1795 87.4646 29.1795H86.3763C86.0821 29.1795 85.872 29.1165 85.746 28.9885C85.622 28.8604 85.559 28.6421 85.559 28.3399L85.5632 22.106C85.0736 22.0599 84.519 22.8512 84.0904 23.0967V28.1552C84.0904 28.5288 84.0168 28.7912 83.8656 28.9465C83.7143 29.1018 83.458 29.1795 83.105 29.1795H74.43C75.075 28.7534 75.657 28.2244 76.178 27.5969V26.9567C75.8208 26.4299 75.3691 26.0101 74.825 25.6952C74.2808 25.3804 73.7304 25.2209 73.1694 25.2209C72.6084 25.2209 72.0495 25.3762 71.5096 25.6868C70.9696 25.9975 70.5263 26.4131 70.1839 26.9336V27.5969C70.2385 27.6598 70.3078 27.7396 70.394 27.8424C70.665 28.1615 70.8688 28.3777 70.999 28.4952C71.2323 28.7135 71.5243 28.9423 71.8731 29.1816H62.9459C62.6518 29.1816 62.4417 29.1186 62.3135 28.9906C62.1854 28.8625 62.1202 28.6442 62.1202 28.342V24.4652C61.6349 24.4191 61.0781 25.2104 60.6516 25.4517V25.5336C60.4142 25.4287 60.1537 25.3741 59.8701 25.3741C59.3175 25.3741 58.8322 25.5756 58.4141 25.9786C57.9161 26.4592 57.6682 27.0847 57.6682 27.8529C57.6682 28.4742 57.8426 29.0053 58.1935 29.4481C58.62 29.9834 59.1914 30.252 59.9079 30.252C60.389 30.252 60.7966 30.124 61.1307 29.8679C61.5277 30.3486 62.0866 30.59 62.8094 30.59H72.0517C72.4319 30.59 72.8059 30.4934 73.1715 30.2982C73.5202 30.4913 73.8942 30.59 74.2913 30.59H83.1848C83.8067 30.59 84.332 30.4199 84.7585 30.0778C85.1388 30.4199 85.6325 30.59 86.2397 30.59L86.2376 30.5879ZM59.9898 29.0053C59.7188 29.0053 59.5045 28.9045 59.349 28.703C59.1935 28.5015 59.1158 28.2286 59.1158 27.8886C59.1158 27.5486 59.1977 27.2715 59.3574 27.0616C59.5171 26.8517 59.723 26.7468 59.9793 26.7468C60.2356 26.7468 60.4646 26.8328 60.6663 27.0029V28.4113C60.6663 28.5435 60.6705 28.64 60.6789 28.703C60.5151 28.9045 60.2861 29.0053 59.9919 29.0053H59.9898ZM73.161 28.6211C72.6252 28.2328 72.205 27.7711 71.9025 27.2358C72.329 26.8014 72.7408 26.5831 73.1379 26.5831C73.535 26.5831 73.9888 26.8014 74.4552 27.2358C74.1758 27.7018 73.7451 28.1636 73.161 28.6211Z" fill="black"/>
<path d="M60.2449 23.1199L60.8566 22.508C60.9189 22.4456 61.0214 22.4441 61.0854 22.5078L61.6994 23.1204C61.7618 23.1827 61.7634 23.2851 61.6995 23.3489L61.0879 23.9608C61.0255 24.0232 60.923 24.0248 60.8591 23.961L60.2466 23.3499C60.1841 23.2876 60.1826 23.1852 60.2464 23.1214L60.2449 23.1199Z" fill="black"/>
<path d="M58.6705 23.4077L59.2824 22.796C59.3447 22.7337 59.4473 22.7321 59.5112 22.7959L60.1235 23.4072C60.1859 23.4695 60.1874 23.5719 60.1235 23.6358L59.5117 24.2475C59.4493 24.3098 59.3468 24.3113 59.2829 24.2475L58.6706 23.6363C58.6082 23.574 58.6066 23.4716 58.6705 23.4077Z" fill="black"/>
<path d="M17.9611 32.3185L18.5729 31.7067C18.6353 31.6443 18.7378 31.6428 18.8017 31.7065L19.4156 32.3192C19.478 32.3815 19.4795 32.4839 19.4157 32.5477L18.8039 33.1595C18.7416 33.2219 18.6391 33.2235 18.5751 33.1597L17.9613 32.547C17.8988 32.4847 17.8973 32.3823 17.9611 32.3185Z" fill="black"/>
<path d="M22.1737 32.3174L22.7854 31.7056C22.8478 31.6433 22.9503 31.6417 23.0142 31.7055L23.6281 32.3182C23.6905 32.3805 23.6921 32.4829 23.6282 32.5467L23.0165 33.1585C22.9541 33.2209 22.8516 33.2224 22.7877 33.1586L22.1738 32.546C22.1114 32.4837 22.1098 32.3813 22.1737 32.3174Z" fill="black"/>
<path d="M16.3879 32.6072L16.9995 31.9953C17.0619 31.9329 17.1644 31.9314 17.2283 31.9951L17.8423 32.6077C17.9047 32.67 17.9063 32.7724 17.8425 32.8362L17.2308 33.4481C17.1685 33.5105 17.066 33.5121 17.002 33.4483L16.3895 32.8372C16.3271 32.775 16.3255 32.6725 16.3894 32.6087L16.3879 32.6072Z" fill="black"/>
<path d="M4.27555 17.5052C5.23991 17.5052 6.04249 17.3268 6.6875 16.9699C7.40184 16.5669 7.80733 16.0065 7.89978 15.2929H9.99447C10.1457 15.2929 10.3012 15.2698 10.4441 15.2236C10.7004 15.1418 11.0975 14.999 11.2908 14.8395C11.6648 15.1418 12.1333 15.2929 12.7006 15.2929H29.9498C30.5317 15.2929 30.9982 15.1334 31.349 14.8164C31.7692 14.4365 31.9793 13.8803 31.9793 13.152V12.8686C31.9793 12.0773 31.7461 11.414 31.2797 10.8767C30.7355 10.2407 30.0023 9.92169 29.0757 9.92169C28.0505 9.92169 27.1365 10.3289 26.336 11.1433V7.01675C25.8507 6.96638 25.2918 7.76188 24.8674 8.00326V13.5235C24.8128 13.6557 24.7708 13.7753 24.7393 13.8803H23.1551L23.1509 13.8845H12.8392C12.543 13.8845 12.335 13.8215 12.2089 13.6935C12.085 13.5654 12.0219 13.3472 12.0219 13.0449V9.66352C11.5324 9.61734 10.9777 10.4086 10.5533 10.65V13.0449C10.5533 13.3472 10.4903 13.5654 10.3664 13.6935C10.2424 13.8215 9.70243 13.8845 9.70243 13.8845H5.98367L5.97526 13.8971C5.72734 14.3043 4.94997 14.8332 4.9962 15.295H6.36815C6.12023 15.8848 5.4206 16.1807 4.26925 16.1807C3.5318 16.1807 2.96663 16.0023 2.58005 15.6455C2.19136 15.2971 1.99807 14.7954 1.99807 14.1427C1.99807 13.5613 2.15354 13.005 2.46449 12.4782L2.10312 12.5559C1.24381 12.7301 0.634521 13.4878 0.634521 14.3568V14.3756C0.634521 15.1753 0.876136 15.8512 1.35727 16.4011C2.01068 17.1378 2.98134 17.5073 4.27135 17.5073L4.27555 17.5052ZM26.3402 13.5445C26.6596 12.8371 27.0588 12.2872 27.5441 11.8863C28.0295 11.4854 28.5463 11.2839 29.0905 11.2839C29.5107 11.2839 29.851 11.4308 30.1199 11.7268C30.3889 12.0227 30.5233 12.4026 30.5233 12.8686V13.089C30.5233 13.4143 30.4813 13.6284 30.3994 13.725C30.3174 13.8257 30.1515 13.8761 29.8951 13.8761H26.3402V13.5424V13.5445Z" fill="black"/>
<path d="M28.327 8.03352L28.9389 7.42183C29.0012 7.35947 29.1037 7.35795 29.1677 7.42175L29.7814 8.0345C29.8439 8.09681 29.8454 8.19922 29.7815 8.26306L29.1696 8.87475C29.1073 8.93711 29.0048 8.93863 28.9409 8.87483L28.3271 8.26208C28.2647 8.19977 28.2631 8.09736 28.327 8.03352Z" fill="black"/>
<path d="M10.6253 17.0071L11.2372 16.3954C11.2996 16.333 11.4021 16.3315 11.466 16.3953L12.0798 17.0081C12.1422 17.0704 12.1437 17.1728 12.0799 17.2366L11.468 17.8483C11.4056 17.9107 11.3031 17.9122 11.2392 17.8484L10.6254 17.2356C10.563 17.1733 10.5615 17.0709 10.6253 17.0071Z" fill="black"/>
<path d="M78.5837 17.1672C79.0501 17.4149 79.527 17.5408 80.0166 17.5408C80.6469 17.5408 81.1868 17.3477 81.6364 16.9594C82.1344 16.525 82.4327 15.9352 82.5335 15.19C82.7583 15.2593 83.0042 15.295 83.2668 15.295H84.9413C85.4707 15.295 85.9204 15.1585 86.2943 14.8878C86.6914 15.1585 87.1999 15.295 87.8218 15.295C88.4437 15.295 88.9836 15.0767 89.3954 14.6422C89.8534 14.1448 90.0824 13.4668 90.0824 12.6041C90.0824 11.859 89.8996 11.2503 89.5341 10.776C89.1076 10.2092 88.5088 9.92588 87.7398 9.92588C87.141 9.92588 86.6515 10.0959 86.2712 10.438C85.8363 10.8347 85.6178 11.3804 85.6178 12.0794V13.0449C85.6178 13.3472 85.5548 13.5654 85.4308 13.6935C85.3069 13.8215 85.0968 13.8845 84.8005 13.8845H83.4055C83.1092 13.8845 82.9012 13.8215 82.7752 13.6935C82.6512 13.5654 82.5882 13.3472 82.5882 13.0449V9.66351C82.1028 9.61734 81.5461 10.4086 81.1196 10.65V14.6632C81.1196 15.1522 80.9998 15.5364 80.7624 15.8113C80.525 16.0863 80.1951 16.2227 79.7686 16.2227C79.3799 16.2227 78.985 16.1094 78.5795 15.8848V17.1651L78.5837 17.1672ZM87.0885 12.0542C87.0885 11.5421 87.307 11.286 87.7419 11.286C88.3407 11.286 88.6391 11.71 88.6391 12.5559C88.6391 13.4017 88.3512 13.8824 87.7755 13.8824C87.3175 13.8824 87.0885 13.6641 87.0885 13.2296V12.0542Z" fill="black"/>
<path d="M109.351 27.1015C107.405 27.1015 105.172 27.9621 103.987 29.3201C105.107 27.5213 107.084 26.3123 109.351 26.2703H133.235C135.355 26.2703 137.399 25.7477 139 24.7969C138.969 24.7822 139.057 24.1462 138.706 23.5333C138.706 23.5333 138.7 23.5186 138.687 23.4976C138.685 23.4934 138.681 23.4872 138.676 23.483C138.655 23.4473 138.62 23.3948 138.574 23.3318C138.565 23.3192 138.557 23.3087 138.546 23.2961C138.504 23.2437 138.456 23.1891 138.397 23.1303C138.389 23.124 138.38 23.1156 138.374 23.1093C138.16 22.8994 137.83 22.6665 137.355 22.551L115.727 17.1672C115.727 17.1672 112.361 16.3675 110.828 14.5205C111.788 13.8173 112.805 13.3115 114.437 13.0701C114.782 13.0218 115.128 12.9966 115.477 12.9861C115.477 12.9861 126.875 12.7847 129.819 12.707C130.548 12.6902 131.302 12.6818 132.039 12.5811C134.603 12.2494 136.26 11.265 137.139 10.6332V10.5556C136.218 11.1475 134.548 11.9975 132.002 12.2179C131.279 12.2809 130.558 12.2536 129.819 12.2347C126.875 12.1571 115.473 11.9556 115.473 11.9556C115.086 11.9556 114.7 11.9661 114.311 12.0122C113.46 12.1109 111.515 12.4068 109.746 13.832C110 13.4899 111.363 11.7457 114.439 11.3091C114.784 11.2608 115.131 11.2356 115.479 11.2251C115.479 11.2251 126.877 11.0236 129.821 10.946C130.55 10.9292 131.302 10.9208 132.042 10.82C134.605 10.4884 136.262 9.50401 137.141 8.87223V8.79457C136.22 9.38647 134.55 10.2365 132.004 10.4569C131.281 10.5199 130.56 10.4926 129.821 10.4737C126.877 10.3961 115.475 10.1946 115.475 10.1946C115.089 10.1946 114.7 10.2051 114.313 10.2512C113.462 10.3478 111.517 10.6458 109.748 12.071C110.002 11.7289 111.366 9.98466 114.441 9.54809C114.786 9.49981 115.133 9.47462 115.481 9.46413C115.481 9.46413 126.879 9.26263 129.823 9.18497C130.552 9.16818 131.306 9.15978 132.044 9.05903C134.607 8.7274 136.265 7.743 137.143 7.11122V7.03355C136.223 7.62545 134.552 8.47553 132.006 8.69592C131.283 8.75888 130.562 8.7316 129.823 8.71271C126.879 8.63505 115.477 8.43355 115.477 8.43355C115.091 8.43355 114.704 8.44404 114.315 8.49022C113.464 8.58677 111.519 8.88482 109.75 10.31C110.004 9.96787 111.368 8.22365 114.444 7.78707C114.788 7.7388 115.135 7.71361 115.484 7.70312C115.484 7.70312 126.881 7.50162 129.825 7.42396C130.554 7.40717 131.308 7.39877 132.048 7.29802C134.611 6.96639 136.269 5.97989 137.147 5.3502V5.27254C136.227 5.86444 134.556 6.71452 132.01 6.9349C131.287 6.99787 130.567 6.97059 129.827 6.95169C126.884 6.87403 115.481 6.67254 115.481 6.67254C115.095 6.67254 114.708 6.68303 114.32 6.72921C113.469 6.82786 111.523 7.12381 109.754 8.54899C110.008 8.20686 111.372 6.46264 114.448 6.02606C114.792 5.97779 115.139 5.9526 115.488 5.9421C115.488 5.9421 126.886 5.74061 129.829 5.66295C130.558 5.64615 131.31 5.63776 132.05 5.53701C134.613 5.20538 136.271 4.22097 137.149 3.58919V3.51363C136.229 4.10553 134.559 4.9556 132.012 5.17599C131.289 5.23896 130.569 5.21167 129.829 5.19278C126.886 5.11512 115.484 4.91362 115.484 4.91362C115.097 4.91362 114.708 4.92412 114.322 4.9703C113.471 5.06685 111.525 5.3649 109.756 6.79008C110.01 6.44795 111.374 4.70373 114.45 4.26715C114.794 4.21887 115.141 4.19369 115.49 4.18319C115.49 4.18319 126.888 3.98169 129.831 3.90403C130.56 3.88724 131.315 3.87885 132.052 3.7781C134.615 3.44646 136.273 2.46206 137.151 1.83028V1.75262C136.231 2.34452 134.561 3.19459 132.014 3.41498C131.291 3.47795 130.571 3.45066 129.831 3.43177C126.888 3.35411 115.486 3.15261 115.486 3.15261C115.099 3.15261 114.712 3.16311 114.324 3.20928C113.473 3.30584 111.527 3.60388 109.758 5.02907C110.013 4.68694 111.376 2.94272 114.452 2.50614C114.797 2.45786 115.143 2.43268 115.492 2.42218C115.492 2.42218 126.89 2.22068 129.833 2.14302C130.562 2.12623 131.317 2.11783 132.054 2.01709C134.617 1.68545 136.275 0.698951 137.153 0.0692685V-0.00839233C136.233 0.583509 134.563 1.43358 132.016 1.65397C131.294 1.71694 130.573 1.68965 129.833 1.67076C126.89 1.5931 115.488 1.3916 115.488 1.3916C115.101 1.3916 114.715 1.4021 114.326 1.44827C113.475 1.54692 111.536 1.84287 109.767 3.26805C109.767 3.26805 107.828 4.66175 107.584 7.07973C107.552 7.40087 107.538 13.6263 107.531 17.6185C107.531 17.6185 107.531 17.6185 107.531 17.6206L107.525 20.918C107.542 22.0326 107.838 23.1408 108.351 24.121C108.479 24.3645 108.62 24.6059 108.769 24.8347C108.769 24.8347 108.769 24.8389 108.771 24.8389C107.945 24.8808 105.073 25.414 103.205 27.8152C102.207 29.0934 101.382 30.7201 101.382 33.0793V46.756C101.382 46.756 101.377 46.7791 101.377 46.7875V49.6001C101.459 52.8807 102.983 55.2021 103.739 56.1593C103.993 56.4804 104.163 56.6504 104.163 56.6504C105.088 57.7125 106.203 58.6045 107.445 59.2573C108.227 59.6624 109.052 59.9793 109.903 60.1913C109.903 60.1913 124.806 63.6336 131.052 64.9937V64.937C131.052 64.937 131.05 64.937 131.048 64.937V64.9328C124.902 63.1949 110.16 59.2111 110.16 59.2111C107.47 58.3925 105.897 56.9128 105.035 55.8297C104.521 55.1812 104.26 54.6753 104.168 54.5368C105.092 55.5988 106.201 56.4909 107.443 57.1437C108.225 57.5488 109.05 57.8657 109.901 58.0777C109.901 58.0777 124.804 61.52 131.05 62.8801V62.8234C131.05 62.8234 131.048 62.8234 131.046 62.8234V62.8192C124.9 61.0813 110.158 57.0975 110.158 57.0975C107.468 56.2789 105.895 54.7991 105.033 53.7161C104.518 53.0675 104.258 52.5617 104.165 52.4231C105.09 53.4852 106.199 54.3773 107.441 55.03C108.222 55.4351 109.048 55.7521 109.899 55.9641C109.899 55.9641 124.801 59.4063 131.048 60.7643V60.7077C131.048 60.7077 131.046 60.7077 131.044 60.7077V60.7035C124.898 58.9655 110.155 54.9818 110.155 54.9818C107.466 54.1632 105.892 52.6834 105.031 51.6004C104.516 50.9518 104.256 50.4459 104.163 50.3074C105.088 51.3695 106.197 52.2615 107.439 52.9143C108.22 53.3194 109.046 53.6363 109.897 53.8483C109.897 53.8483 124.799 57.2906 131.046 58.6486V58.5919C131.046 58.5919 131.044 58.5919 131.041 58.5919V58.5877C124.896 56.8498 110.153 52.866 110.153 52.866C107.464 52.0474 105.89 50.5698 105.029 49.4846C104.514 48.8361 104.254 48.3302 104.161 48.1917C105.086 49.2537 106.195 50.1458 107.437 50.7986C108.218 51.2037 109.044 51.5206 109.895 51.7326C109.895 51.7326 124.797 55.1749 131.044 56.5329V56.4762C131.044 56.4762 131.041 56.4762 131.039 56.4762V56.472C124.894 54.7341 110.151 50.7503 110.151 50.7503C107.462 49.9317 105.888 48.452 105.027 47.3689C104.512 46.7203 104.252 46.2145 104.159 46.076C105.084 47.138 106.193 48.0301 107.435 48.6828C108.216 49.0879 109.042 49.4049 109.893 49.6169C109.893 49.6169 124.795 53.0591 131.041 54.4192V54.3626C131.041 54.3626 131.039 54.3626 131.037 54.3626V54.3584C124.892 52.6205 110.149 48.6367 110.149 48.6367C107.46 47.8181 105.886 46.3383 105.025 45.2553C104.51 44.6067 104.25 44.1008 104.157 43.9623C105.082 45.0244 106.191 45.9164 107.433 46.5692C108.214 46.9743 109.04 47.2912 109.891 47.5032C109.891 47.5032 124.793 50.9455 131.039 52.3056V52.2489C131.039 52.2489 131.037 52.2489 131.035 52.2489V52.2447C124.89 50.5068 110.147 46.523 110.147 46.523C107.435 45.6981 105.859 44.1995 105.002 43.1122C104.718 42.7533 104.514 42.4385 104.373 42.2076C105.336 40.9839 107.042 39.8211 109.309 39.7749H133.193C137.95 39.7749 138.683 37.1471 138.683 37.1471C136.834 37.9929 135.168 38.3518 133.197 38.3518H109.313C107.367 38.3518 105.134 39.2124 103.949 40.5704C105.069 38.7716 107.046 37.5626 109.313 37.5186H133.197C135.317 37.5186 137.361 37.0001 138.962 36.0472V34.748C137.309 35.619 135.304 36.0997 133.201 36.0997H109.317C107.372 36.0997 105.138 36.9603 103.953 38.3183C105.073 36.5195 107.05 35.3105 109.317 35.2664H133.201C135.321 35.2664 137.365 34.748 138.966 33.7971V32.4979C137.313 33.369 135.309 33.8496 133.205 33.8496H109.321C107.376 33.8496 105.142 34.7102 103.957 36.0682C105.077 34.2694 107.054 33.0604 109.321 33.0163H133.205C135.325 33.0163 137.37 32.4979 138.971 31.545V30.2457C137.317 31.1168 135.313 31.5975 133.21 31.5975H109.326C107.38 31.5975 105.147 32.458 103.962 33.816C105.082 32.0172 107.059 30.8083 109.326 30.7642H133.21C135.33 30.7642 137.374 30.2457 138.975 29.2928V27.9936C137.321 28.8646 135.317 29.3453 133.214 29.3453H109.33C107.384 29.3453 105.151 30.2059 103.966 31.5639C105.086 29.7651 107.063 28.5561 109.33 28.5141H133.214C135.334 28.5141 137.378 27.9915 138.979 27.0407V25.7414C137.326 26.6125 135.321 27.0889 133.218 27.0889H109.334L109.351 27.1015ZM110.613 23.1387C110.094 22.5867 109.836 22.1144 109.746 21.9507C111.216 23.5711 113.013 24.1777 113.883 24.4254C113.883 24.4254 114.822 24.7003 114.834 24.7045C114.841 24.7045 115.011 24.7486 115.309 24.8242C114.498 24.82 113.74 24.82 113.046 24.82C111.914 24.3288 111.132 23.6928 110.611 23.1387H110.613ZM113.284 23.1807C111.914 22.6329 111.023 21.871 110.473 21.2476C110.046 20.7627 109.823 20.3618 109.746 20.2107C111.216 21.8311 113.013 22.4377 113.883 22.6854C113.883 22.6854 114.822 22.9603 114.834 22.9645C114.86 22.9708 118.2 23.802 122.295 24.8242H119.562L114.376 23.527C114.007 23.4326 113.641 23.3255 113.284 23.1828V23.1807ZM137.269 24.0308L114.378 18.3133C114.009 18.2188 113.643 18.1118 113.286 17.969C111.918 17.4212 111.025 16.6593 110.475 16.0359C110.174 15.6938 109.975 15.3936 109.857 15.1942L109.903 15.1628C111.345 16.6593 113.046 17.2344 113.88 17.4737C113.88 17.4737 114.82 17.7486 114.832 17.7528C114.895 17.7675 137.273 23.3381 137.273 23.3381C137.632 23.441 137.916 23.5942 138.139 23.7768C137.905 23.8839 137.666 23.9888 137.418 24.0833C137.37 24.0665 137.319 24.0476 137.269 24.035V24.0308ZM109.746 23.6907C110.16 24.142 110.597 24.5135 111.029 24.8221H110.561C110.076 24.2952 109.832 23.8503 109.746 23.6907ZM126.524 24.82L114.381 21.7849C114.011 21.6905 113.645 21.5834 113.288 21.4407C111.92 20.8929 111.027 20.1309 110.477 19.5076C110.048 19.0227 109.828 18.6218 109.748 18.4707C111.221 20.0911 113.015 20.6977 113.885 20.9453C113.885 20.9453 114.824 21.2203 114.836 21.2245C114.874 21.235 122.85 23.2206 129.281 24.8221H126.524V24.82ZM133.472 24.8263L133.453 24.8221H133.468L114.376 20.0512C114.007 19.9567 113.641 19.8497 113.284 19.707C111.914 19.1591 111.023 18.3972 110.473 17.7738C110.046 17.289 109.823 16.8881 109.746 16.737C111.216 18.3573 113.013 18.9639 113.883 19.2116C113.883 19.2116 114.822 19.4866 114.834 19.4908C114.887 19.5055 130.098 23.2919 135.441 24.6227L133.468 24.8242C134.14 24.8074 134.8 24.7402 135.443 24.6227C135.447 24.6227 135.454 24.6248 135.458 24.6269C134.813 24.7444 134.151 24.8116 133.472 24.8284V24.8263ZM137.424 24.0833C137.424 24.0833 137.418 24.0833 137.414 24.0791H137.42L138.141 23.7705C138.141 23.7705 138.145 23.7726 138.147 23.7747C137.914 23.8818 137.672 23.9867 137.424 24.0812V24.0833ZM129.296 24.8242C129.296 24.8242 129.3 24.8242 129.302 24.8242H127.653H129.296Z" fill="black"/>
</g>
<defs>
<clipPath id="clip0_136_408">
<rect width="139" height="65" fill="white"/>
</clipPath>
</defs>
</svg>
