<svg width="1440" height="1276" viewBox="0 0 1440 1276" fill="none" xmlns="http://www.w3.org/2000/svg">
<g opacity="0.02" clipPath="url(#clip0_8_211)">
<path fillRule="evenodd" clipRule="evenodd" d="M722.469 1575.93H697.405C679.569 1542.94 650.894 1507.82 613.516 1474.87C600.173 1488.19 582.388 1514.86 560.153 1552.62C555.506 1560.98 551.347 1568.75 547.668 1575.93H515.666C517.03 1571.83 518.513 1567.77 520.125 1563.73C531.247 1534.85 551.261 1497.08 582.388 1448.2C569.046 1434.87 557.932 1423.77 549.032 1410.44C497.89 1474.87 442.299 1519.3 382.256 1543.74C368.914 1550.4 362.242 1552.62 360.021 1552.62C360.021 1550.4 366.693 1541.51 382.256 1528.19C411.163 1503.75 431.177 1485.97 442.299 1477.1C473.426 1448.21 502.332 1417.11 529.018 1388.23C522.346 1377.12 511.224 1361.56 497.882 1341.57C493.44 1337.13 486.76 1328.24 473.426 1317.14C466.754 1310.47 464.533 1303.81 464.533 1294.92C464.533 1281.6 466.754 1266.05 468.984 1248.27C473.434 1230.5 475.655 1221.6 477.876 1221.6C482.318 1221.6 495.661 1230.49 522.346 1246.04C546.802 1261.59 564.595 1274.92 577.938 1286.03C584.609 1290.47 586.83 1294.92 586.83 1294.92C586.83 1297.14 582.388 1299.36 571.267 1299.36C553.482 1299.36 542.36 1299.36 542.36 1301.58C542.36 1303.8 551.261 1314.91 569.046 1334.9C593.501 1299.36 624.637 1254.92 666.886 1199.38C704.685 1154.95 733.591 1132.74 749.163 1132.74C760.277 1132.74 764.727 1141.62 764.727 1159.39C764.727 1177.16 760.277 1203.83 749.163 1234.92C740.271 1263.81 729.149 1288.24 718.036 1306.01C704.693 1332.68 682.459 1366 651.331 1410.43C682.459 1445.98 702.473 1477.08 711.373 1503.73C717.959 1523.47 722.375 1547.53 722.487 1575.91L722.469 1575.93ZM704.685 1223.83C680.229 1239.38 642.422 1283.82 591.281 1354.91C604.623 1368.24 615.736 1377.12 624.637 1383.79C631.309 1374.9 651.323 1346.01 684.671 1294.92C715.798 1246.05 726.92 1219.39 713.577 1219.39C711.356 1219.39 709.127 1221.61 704.685 1223.83Z" fill="#F6F6F6"/>
<path fillRule="evenodd" clipRule="evenodd" d="M198.974 1576H167.41C188.513 1416.05 261.435 1282.87 386.698 1176.45C327.102 1159.31 278.336 1130.44 238.608 1089.84C189.842 1040.22 165.463 980.684 165.463 911.215C165.463 849.868 187.132 799.344 229.579 760.553C261.186 731.685 309.043 711.83 372.249 699.206C425.526 691.984 478.802 683.871 532.079 676.65C589.874 665.826 630.511 645.972 652.18 618.004C665.729 600.86 676.559 592.746 685.589 591.837C691.908 592.738 694.618 596.348 694.618 603.57C694.618 608.081 693.718 612.592 691.008 618.004C678.368 648.673 657.6 676.65 627.802 703.708C598.904 730.775 568.205 750.621 535.697 763.254C506.8 774.078 444.494 785.81 348.78 799.344C278.345 809.267 230.488 828.212 207.009 856.18C212.429 897.681 236.807 941.884 278.345 986.996C333.43 1046.54 399.346 1077.21 476.101 1077.21C508.609 1077.21 556.466 1060.07 616.971 1027.59C675.667 993.309 733.463 959.029 791.25 924.74C798.478 921.129 803.889 918.428 808.408 918.428C812.927 918.428 814.728 921.138 814.728 925.649C814.728 929.26 812.919 934.672 809.309 940.984L773.191 1005.94C767.771 1015.86 759.642 1024.89 748.812 1032.11C684.697 1071.81 620.59 1110.6 556.475 1150.29C452.632 1216.15 373.167 1280.21 316.28 1342.46C244.928 1420.3 205.603 1498.15 198.992 1576H198.974Z" fill="#F6F6F6"/>
<path fillRule="evenodd" clipRule="evenodd" d="M1024.55 1575.93H984.453C975.192 1536.76 956.859 1491.3 929.462 1439.53C923.159 1426.95 919.566 1416.16 919.566 1408.06C919.566 1402.67 926.76 1376.6 941.166 1330.75C943.868 1322.66 946.569 1318.16 950.162 1318.16C953.755 1318.16 958.265 1323.55 963.659 1336.14C976.255 1361.31 987.06 1379.3 997.856 1390.09C1020.35 1412.57 1051.85 1423.36 1090.54 1423.36C1136.44 1423.36 1173.33 1404.48 1202.13 1365.82C1221.03 1337.04 1239.03 1308.28 1257.93 1279.5C1264.23 1272.31 1269.62 1268.72 1274.13 1268.72C1279.53 1268.72 1282.22 1272.31 1282.22 1280.4C1282.22 1284 1281.32 1287.59 1280.42 1291.19C1273.22 1322.65 1269.62 1337.03 1269.62 1333.44C1269.62 1346.92 1275.93 1358.61 1289.42 1369.4C1302.92 1381.09 1320.92 1387.39 1340.72 1387.39C1365.01 1387.39 1381.21 1380.19 1389.31 1367.61C1389.31 1365.81 1381.21 1352.33 1365.02 1325.35C1367.72 1309.17 1374.02 1284 1384.82 1249.83C1387.52 1239.04 1391.11 1233.65 1394.72 1233.65C1397.43 1233.65 1401.03 1237.24 1406.42 1243.53C1421.72 1265.11 1428.92 1289.38 1428.92 1318.16C1428.92 1363.12 1419.03 1401.77 1400.13 1434.14C1377.63 1472.8 1345.23 1492.58 1302.94 1492.58C1274.14 1492.58 1247.15 1471 1222.85 1426.95C1183.25 1497.98 1131.96 1533.04 1068.07 1533.04C1056.37 1533.04 1041.97 1531.24 1025.78 1527.65C1025.78 1544.61 1025.37 1560.7 1024.57 1575.93H1024.55Z" fill="#F6F6F6"/>
<path fillRule="evenodd" clipRule="evenodd" d="M34.6344 -352.814C34.6344 -362.214 15.8381 -374.976 -22.132 -391.134C-59.7334 -406.906 -87.9194 -413.295 -105.97 -410.285C-112.367 -408.415 -114.991 -406.151 -113.49 -403.158C-106.724 -384.744 -92.8157 -355.07 -71.7556 -313.748C-16.121 -331.407 19.6025 -344.555 34.6344 -352.823V-352.814ZM-437.959 -110.916C-325.919 -198.052 -218.774 -258.533 -115.754 -293.088C-123.274 -304.726 -134.559 -325.018 -148.836 -353.569C-155.619 -367.102 -158.998 -383.621 -158.998 -403.527C-158.998 -434.702 -150.731 -461.375 -134.559 -483.536C-115.385 -509.831 -86.8133 -523.348 -49.2119 -523.725C-19.5167 -523.339 22.9725 -504.188 77.8696 -466.255C136.531 -426.434 165.841 -393.749 165.841 -368.209C157.566 -333.654 147.421 -301.724 135.022 -271.672C88.3997 -257.401 32.0019 -240.128 -34.1714 -219.09C-31.5303 -181.526 -35.2947 -162.743 -45.0701 -163.129C-52.2217 -162.743 -60.1022 -178.146 -68.377 -208.953C-98.4581 -198.052 -140.561 -180.016 -194.704 -155.23C-272.916 -119.166 -332.315 -85.3665 -372.172 -54.1912C-433.44 -6.10315 -495.489 52.1136 -558.644 120.476C-630.442 199.371 -672.177 243.694 -683.462 253.463C-722.572 288.386 -761.288 305.667 -798.89 305.667C-839.484 305.667 -875.585 287.271 -906.42 250.452C-937.239 213.642 -953.043 167.81 -953.043 112.972C-953.043 93.8037 -951.027 73.2031 -947.014 51.1617L-921.649 78.3575C-922.524 86.8654 -922.961 94.8929 -922.961 102.449C-922.961 134.379 -915.064 160.305 -899.655 179.834C-884.237 199.74 -862.422 209.508 -833.85 209.508C-794.379 209.508 -751.521 190.726 -704.899 152.406C-680.46 132.501 -638.357 89.687 -578.958 23.9487C-521.806 -38.0332 -474.815 -83.111 -437.968 -110.907L-437.959 -110.916ZM-926.657 -26.4379L-905.237 -0.202576C-899.166 -21.1119 -891.543 -43.728 -882.35 -68.0936C-855.279 -139.458 -841.739 -181.526 -841.739 -194.304C-841.739 -197.298 -842.494 -198.807 -844.363 -199.184C-848.127 -198.798 -853.384 -192.795 -860.15 -180.771C-889.022 -124.329 -911.214 -72.9136 -926.649 -26.4379H-926.657Z" fill="#F6F6F6"/>
<path fillRule="evenodd" clipRule="evenodd" d="M290.109 -74.1058C344.621 -108.171 400.058 -155.393 456.31 -215.917C497.187 -259.588 538.381 -310.043 579.807 -367.445C601.562 -398.295 623.523 -429.47 645.286 -460.929C668.764 -492.859 688.667 -513.957 704.762 -524.274C729.518 -539.66 749.567 -538.468 765.096 -520.844L776.929 -502.044C784.672 -484.497 788.188 -460.646 787.382 -430.199C787.237 -420.92 784.844 -396.451 780.179 -356.571C776.758 -335.644 773.439 -314.58 769.872 -293.568C765.499 -266.853 764.135 -243.628 765.482 -223.704C767.694 -190.342 767.857 -173.266 766.133 -172.186C765.525 -172.203 764.967 -172.452 764.427 -173.309C761.992 -177.169 757.524 -190.942 750.87 -214.519C741.154 -249.957 741.18 -296.904 750.81 -355.893C760.02 -409.213 762.043 -439.65 757.267 -447.232C754.206 -452.095 748.092 -451.649 738.831 -446.031C724.596 -436.88 702.396 -412.146 672.126 -371.948C605.129 -281.501 564.209 -227.427 549.34 -210.085C460.872 -102.94 379.641 -26.5237 306.016 19.7462C228.67 68.3574 159.881 83.2375 99.35 63.9491C57.2724 50.4584 22.3465 21.6673 -5.22211 -22.1154C-34.3257 -68.3338 -50.5153 -118.489 -53.6794 -172.417C-54.3997 -189.742 -53.5766 -199.244 -51.2356 -200.917C-50.0522 -201.26 -48.9975 -200.531 -47.9085 -198.807C-45.2074 -194.51 -42.4719 -186.045 -39.7022 -173.404C-35.9549 -155.385 -32.482 -137.803 -29.0949 -120.35C-23.1095 -98.1455 -13.6257 -76.7473 -0.65168 -56.1381C16.0181 -29.6627 43.8612 -14.0107 82.8089 -9.32794C140.724 -1.78925 209.71 -23.3676 290.109 -74.1058Z" fill="#F6F6F6"/>
<path fillRule="evenodd" clipRule="evenodd" d="M2014.85 683.442C2008.69 668.065 1996.39 652.696 1977.92 637.318C1959.46 621.94 1940.99 615.791 1928.68 615.791C1891.75 615.791 1873.29 625.011 1873.29 643.459C1873.29 668.056 1894.83 680.355 1944.07 680.355C1981.01 680.355 2005.62 680.355 2014.85 683.434V683.442ZM1584 1175.39C1642.47 1175.39 1710.17 1150.79 1793.26 1101.59C1857.89 1061.62 1925.6 1012.43 1990.22 957.082C2045.62 904.817 2079.47 867.913 2085.62 846.394C2079.46 812.569 2036.38 797.2 1956.36 797.2C1857.89 797.2 1808.64 763.383 1808.64 695.732C1808.64 643.467 1824.03 597.343 1857.88 557.369C1888.65 520.473 1922.51 502.025 1956.35 502.025C1993.28 502.025 2030.21 526.622 2064.06 575.816C2094.84 618.862 2113.3 664.986 2122.54 717.25C2128.69 738.777 2131.77 763.374 2131.77 784.893C2131.77 867.904 2110.23 932.476 2067.14 981.67C2011.75 1043.16 1947.12 1104.66 1876.34 1160C1759.39 1252.24 1657.84 1301.43 1574.75 1301.43C1507.04 1301.43 1451.64 1273.76 1414.72 1224.56C1380.87 1178.44 1365.48 1123.1 1365.48 1055.45C1365.48 966.293 1383.95 877.124 1420.88 784.884C1427.03 766.436 1433.19 757.208 1436.27 757.208C1439.35 757.208 1439.35 760.278 1439.35 763.357C1439.35 769.507 1439.35 778.726 1436.27 791.033C1408.57 883.273 1396.26 950.915 1396.26 997.039C1396.26 1040.08 1405.49 1076.98 1427.03 1107.73C1460.89 1150.77 1513.2 1175.37 1583.99 1175.37L1584 1175.39Z" fill="#F6F6F6"/>
<path fillRule="evenodd" clipRule="evenodd" d="M1384.01 112.878C1411.58 112.989 1436.35 129.336 1458.21 161.926C1480.18 194.628 1495.43 236.953 1504.17 289.364C1505.29 294.741 1505.74 297.991 1505.62 298.995C1506.74 300.453 1507.42 300.453 1507.86 298.995C1508.42 298.094 1509.65 294.852 1511.56 289.364C1516.04 258.12 1526.8 211.532 1543.95 149.267C1562.67 104.807 1583.07 82.5256 1605.15 82.4056C1616.58 82.5171 1627.9 90.1329 1639.11 105.142C1648.97 118.469 1653.79 129.224 1653.79 137.398C1653.79 143.899 1652.11 152.183 1648.64 162.261C1644.26 176.035 1639.11 182.861 1633.17 182.758C1630.71 182.87 1625.32 177.836 1617.03 167.638C1608.74 157.561 1600.1 152.406 1591.13 152.295C1571.52 152.406 1553.36 198.548 1536.55 290.71C1529.26 330.796 1521.19 359.021 1512.23 375.591C1505.95 386.792 1500.57 392.392 1496.09 392.392C1492.27 392.392 1490.26 387.349 1490.15 377.049C1490.26 361.037 1480.95 329.681 1462.23 283.094C1443.63 236.507 1430.29 213.325 1422.34 213.213C1416.95 213.325 1413.59 214.894 1412.02 217.802C1410.67 220.829 1406.19 222.287 1398.68 222.167C1390.38 222.279 1379.51 216.232 1365.95 203.916C1352.5 191.824 1345.78 181.969 1345.67 174.576C1345.78 171.215 1351.49 160.125 1362.7 141.206C1374.02 122.389 1381.08 112.981 1383.99 112.869L1384.01 112.878Z" fill="#F6F6F6"/>
<path fillRule="evenodd" clipRule="evenodd" d="M1161.48 1280.75C1077.64 1280.75 1035.72 1225.45 1035.72 1114.82C1035.72 1030.66 1053.38 945.109 1088.67 858.144C1096.3 839.302 1101.91 829.885 1105.52 829.885C1107.12 830.288 1107.92 832.286 1107.92 835.888C1107.92 841.917 1106.12 851.129 1102.51 863.547C1078.05 949.723 1065.81 1015.24 1065.81 1060.12C1065.81 1093.78 1075.85 1119.64 1095.9 1137.67C1112.74 1152.91 1133.41 1160.52 1157.87 1160.52C1211.23 1160.52 1313.71 1111.22 1465.34 1012.62C1602.92 923.256 1682.54 868.161 1704.2 847.312C1712.62 839.302 1716.84 831.686 1716.84 824.464C1716.84 813.649 1706.41 800.21 1685.55 784.189C1659.87 764.558 1618.35 741.11 1561 713.854C1498.42 684.608 1451.69 659.557 1420.81 638.716C1366.67 601.846 1319.32 555.756 1278.81 500.447C1273.59 493.637 1262.75 485.421 1246.32 475.798C1237.08 470.592 1232.48 458.568 1232.48 439.734V366.989C1232.48 360.179 1233.28 355.771 1234.88 353.755C1237.3 350.951 1243.72 352.152 1254.14 357.366L1378.09 416.869C1382.89 419.279 1387.31 421.492 1391.32 423.482C1411.38 435.12 1418.79 443.928 1413.59 449.94C1407.57 456.75 1384.51 458.945 1344.39 456.552C1390.12 501.836 1450.1 541.914 1524.29 576.777C1614.95 619.659 1668.7 647.112 1685.55 659.137C1725.26 686.778 1745.12 734.275 1745.12 801.608C1745.12 815.631 1743.92 829.447 1741.51 843.084C1735.49 880.357 1728.27 906.609 1719.84 921.833C1713.83 933.051 1700.99 947.682 1681.33 965.71C1645.64 998.575 1568.62 1054.27 1450.29 1132.82C1303.07 1231.42 1206.8 1280.72 1161.48 1280.72V1280.75Z" fill="#F6F6F6"/>
<path fillRule="evenodd" clipRule="evenodd" d="M1038.96 722.259C1036.08 675.457 1081.63 569.71 1106.35 526.064C1120.81 501.073 1135.29 486.613 1149.34 482.899C1165.47 481.244 1178.91 484.958 1189.65 493.843C1200.4 502.925 1209.08 514.083 1215.27 527.299C1221.47 540.936 1226.03 556.219 1228.71 573.149C1231.4 590.293 1232.64 604.959 1232.64 617.343C1232.64 633.656 1230.56 652.035 1226.02 672.49C1221.47 693.133 1214.45 712.559 1204.53 730.312C1194.61 748.28 1182.2 763.563 1166.9 776.162C1151.61 788.761 1133.42 794.953 1111.5 794.953C1092.07 794.953 1075.13 788.761 1060.66 776.162C1046.39 763.563 1039.16 745.595 1038.95 722.259H1038.96ZM1081.96 660.303C1082.17 671.246 1087.95 678.476 1099.53 681.984C1111.31 685.698 1123.51 686.941 1135.9 686.109C1148.51 685.286 1160.09 681.564 1170.84 675.166C1181.59 668.965 1186.97 660.294 1186.97 649.557C1186.97 635.517 1181.18 622.918 1169.6 612.172C1158.03 601.434 1145.01 596.057 1130.54 595.86C1116.28 596.065 1104.7 603.707 1095.6 618.776C1086.71 634.059 1082.17 647.901 1081.96 660.294V660.303Z" fill="#F6F6F6"/>
<path fillRule="evenodd" clipRule="evenodd" d="M913.735 1061.41C930.713 908.402 912.783 753.203 879.486 606.04C863.005 532.008 844.046 462.007 821.854 394.948C799.619 328.944 778.833 267.193 758.647 210.709C738.471 154.216 722.015 104.207 707.703 60.5786C693.392 16.9503 685.151 -20.0656 684.482 -48.2992C675.933 23.2797 673.806 90.0043 678.943 150.871C684.036 212.785 693.143 271.782 704.702 327.777C717.042 383.833 731.799 437.933 748.975 490.069C779.382 582.343 805.921 675.294 832.487 768.958C836.654 785.544 840.659 802.294 844.457 819.216C878.123 969.132 879.032 1100.02 830.146 1244.53C820.833 1265.94 814.274 1274.97 811.984 1272.75C809.669 1271.57 810.818 1260.15 816.923 1240.65C856.343 1111.39 846.919 965.95 813.27 837.303C809.257 821.428 805.038 805.545 800.674 789.644C770.524 681.058 746.454 608.861 713.166 505.807C695.347 449.443 679.929 391.14 667.006 328.781C654.05 267.476 645.2 200.134 640.407 128.847C634.799 58.5545 636.497 -19.6797 643.914 -104.912C648.373 -146.431 655.25 -189.913 666.046 -233.173C677.622 -276.381 689.945 -318.517 704.556 -358.423C713.903 -380.876 720.497 -390.945 725.171 -389.641C730.624 -388.295 731.859 -377.78 729.621 -357.017C728.043 -332.042 724.759 -302.976 720.472 -266.672C716.999 -231.355 718.148 -193.696 726.26 -152.503C735.598 -100.796 750.261 -43.5736 768.706 18.0395C787.151 79.6526 807.053 144.49 827.685 211.447C848.316 278.411 868.871 347.443 889.373 418.576C909.893 488.671 926.478 559.573 939.177 629.222C989.024 897.973 965.597 1186.28 801.72 1383.99C801.72 1383.99 888.559 1251.63 913.726 1061.39L913.735 1061.41Z" fill="#F6F6F6"/>
<path fillRule="evenodd" clipRule="evenodd" d="M432.969 22.9366C431.125 21.5643 431.125 18.8199 432.969 14.6861L477.044 -75.4608C479.797 -80.9669 482.79 -83.7285 485.997 -83.7285C490.593 -83.7285 510.332 -71.7901 545.233 -47.9477C580.124 -24.088 597.575 -10.0998 597.575 -5.95743C597.575 9.63453 582.182 42.2078 551.424 91.7539C547.754 98.169 543.852 99.7728 539.719 96.5652C505.273 70.4243 469.696 45.8785 432.96 22.9366H432.969Z" fill="#F6F6F6"/>
<path fillRule="evenodd" clipRule="evenodd" d="M1371.64 808.487C1357.59 791.617 1338.87 781.642 1315.5 778.555C1320.57 797.14 1322.64 812.74 1321.71 825.348C1324.6 825.279 1341.49 823.229 1372.37 819.181C1374.15 819.061 1375.29 818.564 1375.77 817.706C1376.76 815.991 1375.38 812.912 1371.62 808.487H1371.64ZM1305.15 826.574C1305.18 816.042 1302.33 805.553 1296.58 795.142C1290.22 783.804 1283.15 779.189 1275.37 781.299C1270.97 782.5 1265.94 788.049 1260.28 797.937C1254.61 807.826 1252.33 814.816 1253.43 818.864C1256.01 828.332 1273.26 830.905 1305.16 826.574H1305.15ZM1240.62 785.853C1228.82 766.556 1226.11 751.316 1232.51 740.124C1237.44 731.53 1244.46 725.981 1253.6 723.494C1262.4 721.101 1273.39 721.384 1286.55 724.334C1332.47 735.45 1366.31 754.927 1388.08 782.774C1389.65 784.524 1390.9 787.097 1391.82 790.467C1394.77 801.291 1394.79 814.722 1391.9 830.751C1389 846.797 1384.34 855.7 1377.91 857.449C1375.54 858.093 1356.42 861.3 1320.56 867.064C1309.6 896.189 1293.72 923.934 1272.91 950.298C1248.3 981.319 1224.69 1006.08 1202.11 1024.57C1197.44 1028.76 1170.74 1048.18 1122.05 1082.86C1114.41 1088.2 1109.07 1091.29 1106.03 1092.12C1104.67 1092.49 1103.91 1092.33 1103.72 1091.65C1103.26 1089.97 1107.06 1084.57 1115.12 1075.48C1148.36 1041.38 1181.58 1007.29 1214.81 973.18C1252.87 934.14 1281.02 899.422 1299.28 869.036C1265.88 870.494 1246.26 860.58 1240.46 839.284C1235.67 821.703 1235.73 803.898 1240.62 785.853Z" fill="#F6F6F6"/>
<path fillRule="evenodd" clipRule="evenodd" d="M1281.87 -106.422C1299.22 -124.132 1316.6 -124.484 1334.01 -107.451C1343.19 -98.4799 1350.51 -86.6531 1356 -72.0131C1359.55 -62.3475 1362.73 -43.4364 1365.53 -15.3057C1368.75 23.7771 1371.55 50.6642 1373.9 65.3471C1377.6 89.404 1378.67 102.217 1377.12 103.795C1376.81 104.113 1376.34 103.967 1375.7 103.349C1374.13 101.805 1370.93 95.5704 1366.12 84.6698C1355.52 60.6901 1348.95 31.959 1346.4 -1.48905C1345.25 -20.5716 1344.28 -39.8086 1343.44 -59.1999C1331.17 -64.3801 1321.16 -63.025 1313.42 -55.1175C1307.83 -49.4228 1303.08 -40.4604 1299.13 -28.2218C1261.25 92.0541 1205.74 189.491 1132.61 264.123C1092.33 305.238 1047.04 333.729 996.784 349.596C1016.94 360.016 1033.92 380.025 1047.7 409.605C1053.15 421.132 1055.41 427.676 1054.49 429.245C1053.55 430.197 1047.87 425.566 1037.42 415.351C1017.79 396.157 998.079 382.752 978.271 375.136C975.441 374.236 950.325 369.493 902.939 360.917C886.415 338.558 881.399 324.055 887.907 317.417C888.525 316.782 896.817 315.29 912.766 312.923C932.472 310.53 950.916 306.585 968.092 301.079C1018.97 284.578 1064.09 256.25 1103.44 216.086C1144.97 173.71 1178.93 127.037 1205.34 76.0505C1220.68 45.8528 1236.23 7.19031 1252.03 -39.92C1264.48 -76.6701 1274.43 -98.8316 1281.86 -106.422H1281.87Z" fill="#F6F6F6"/>
<path fillRule="evenodd" clipRule="evenodd" d="M1408.25 -215.042C1405.69 -226.972 1400.91 -238.979 1391.66 -250.394C1383.18 -262.521 1373.74 -268.027 1362.64 -268.405C1355.24 -268.654 1346.28 -266.741 1334.24 -261.226C1322.93 -255.686 1316.89 -252.187 1316.81 -249.974C1324.7 -242.307 1337.67 -231.5 1357.25 -218.996C1380.43 -203.404 1394.98 -195.514 1401.64 -195.282C1407.56 -195.085 1409.28 -201.689 1408.25 -215.042ZM1253.26 -276.552C1257.95 -283.8 1263.26 -287.316 1269.18 -287.119C1274.36 -286.947 1278.01 -285.343 1281.61 -282.256C1317.98 -327.659 1352.8 -349.426 1386.1 -348.294C1411.26 -347.445 1431.48 -331.948 1445.3 -302.616C1457 -276.312 1462.71 -247.993 1461.63 -216.192C1461.27 -205.84 1460.21 -196.251 1458.48 -188.91C1453.31 -167.615 1445.26 -148.644 1434.31 -131.988C1421.06 -112.451 1409.6 -102.477 1399.24 -102.828C1360.02 -104.158 1307.84 -138.498 1244.16 -205.059C1236.84 -186.063 1225.61 -160.531 1209.77 -130.719C1190.8 -95.8299 1175.13 -70.4522 1161.28 -55.3748C1115.96 -8.05865 1041.61 43.46 937.488 98.4092C901.258 117.62 870.989 132.878 846.704 144.242L825.172 69.6095C856.017 56.1188 884.108 42.9539 909.43 30.0979C1058.62 -43.3078 1151.88 -106.027 1189.95 -158.035C1199.31 -171.783 1210.37 -192.135 1223.88 -219.065C1238.26 -249.665 1248.53 -268.568 1253.24 -276.544L1253.26 -276.552Z" fill="#F6F6F6"/>
<path fillRule="evenodd" clipRule="evenodd" d="M893.678 170.58C906.729 145.082 937.994 134.979 963.513 148.015C989.032 161.052 999.151 192.287 986.099 217.793C973.048 243.291 941.784 253.394 916.264 240.358C890.745 227.322 880.627 196.086 893.678 170.58Z" fill="#F6F6F6"/>
<path fillRule="evenodd" clipRule="evenodd" d="M1015.37 106.565C1025.44 86.8825 1049.57 79.0865 1069.27 89.1467C1088.97 99.2068 1096.77 123.315 1086.7 142.99C1076.63 162.672 1052.5 170.468 1032.81 160.408C1013.11 150.348 1005.31 126.24 1015.37 106.557V106.565Z" fill="#F6F6F6"/>
<path fillRule="evenodd" clipRule="evenodd" d="M1313.3 228.145C1305.67 254.972 1286.18 282.288 1254.57 310.041C1222.1 339.476 1184.7 361.723 1142 376.8C1125.31 382.889 1115.57 385.411 1112.83 384.631C1112.47 384.528 1112.3 384.219 1112.31 383.713C1113.04 381.603 1121.17 375.668 1136.72 365.9C1213.05 318.24 1254.24 283.54 1260.37 261.962C1266.19 241.456 1259.8 228.565 1241.22 223.162C1230.93 220.366 1220.77 220.709 1210.73 224.303C1203.39 226.987 1198.9 228.291 1197.09 228.291C1196.41 227.064 1195.3 225.975 1193.83 224.792C1195.09 223.085 1197.6 217.87 1201.61 209.217C1223.65 167.93 1251.75 152.072 1285.92 161.626C1314.52 169.868 1323.57 192.012 1313.31 228.136L1313.3 228.145Z" fill="#F6F6F6"/>
<path fillRule="evenodd" clipRule="evenodd" d="M963.933 475.978C976.984 450.48 1008.25 440.377 1033.77 453.414C1059.29 466.45 1069.41 497.685 1056.35 523.191C1043.3 548.689 1012.04 558.792 986.52 545.756C961.001 532.72 950.882 501.484 963.933 475.978Z" fill="#F6F6F6"/>
<path fillRule="evenodd" clipRule="evenodd" d="M988.629 589.573C995.155 576.82 1010.79 571.768 1023.55 578.286C1036.31 584.805 1041.37 600.422 1034.84 613.175C1028.31 625.928 1012.68 630.98 999.922 624.462C987.163 617.944 982.103 602.326 988.629 589.573Z" fill="#F6F6F6"/>
<path fillRule="evenodd" clipRule="evenodd" d="M988.998 1296.78C1002.05 1271.28 1033.31 1261.18 1058.83 1274.21C1084.35 1287.25 1094.47 1318.48 1081.42 1343.99C1068.37 1369.49 1037.1 1379.59 1011.58 1366.56C986.065 1353.52 975.947 1322.28 988.998 1296.78Z" fill="#F6F6F6"/>
<path fillRule="evenodd" clipRule="evenodd" d="M941.586 1194.25C951.533 1174.81 975.363 1167.11 994.82 1177.04C1014.28 1186.98 1021.99 1210.79 1012.04 1230.22C1002.09 1249.66 978.262 1257.36 958.805 1247.43C939.348 1237.5 931.639 1213.68 941.586 1194.25Z" fill="#F6F6F6"/>
<path fillRule="evenodd" clipRule="evenodd" d="M-514.225 427.581C-548.097 432.187 -567.39 434.142 -572.115 433.439C-573.29 433.268 -573.83 432.882 -573.745 432.29C-573.479 430.532 -560.145 424.065 -533.759 412.924C-437.308 378.181 -373.587 324.081 -298.058 258.111C-262.678 227.202 -226.003 201.627 -187.998 181.343C-141.53 156.909 -97.0346 147.852 -54.5541 154.173C-44.5213 155.666 -31.6502 160.443 -15.9579 168.496C-0.265747 176.541 13.48 181.463 25.2878 183.213C47.1283 186.463 66.0533 180.829 82.08 166.335C95.1654 151.403 108.242 136.48 121.328 121.548C130.752 110.905 138.418 106.017 144.317 106.891C147.276 107.329 148.365 110.202 147.576 115.493C146.435 123.161 140.999 135.322 131.283 151.96C126.43 160.262 146.418 167.767 191.274 174.431C195.999 175.134 198.829 174.345 199.763 172.064C200.527 170.983 199.549 159.379 196.805 137.278C195.905 131.111 199.832 122.964 208.587 112.809C223.379 94.5155 231.774 86.7196 233.789 89.4297C242.836 101.625 245.725 118.632 242.484 140.451C239.757 158.736 232.331 179.319 220.163 202.218C208.012 225.135 197.697 238.668 189.233 242.828C167.153 253.403 136.394 245.221 96.9747 218.265C56.0377 250.152 18.4535 263.557 -15.7865 258.463C-25.8193 256.97 -38.2615 252.416 -53.1048 244.775C-67.9567 237.142 -79.2243 232.759 -86.8904 231.618C-145.32 222.93 -208.75 241.824 -277.212 288.292C-344.132 337.16 -434.452 416.869 -514.208 427.556L-514.225 427.581Z" fill="#F6F6F6"/>
<path fillRule="evenodd" clipRule="evenodd" d="M505.428 153.993C500.171 176.017 493.886 190.451 486.528 197.27C457.656 215.1 394.664 257.056 297.544 323.146C293.334 325.77 288.352 329.184 282.581 333.378C281.526 332.855 280.737 331.011 280.223 327.872L285.728 294.038C287.297 285.65 303.315 269.646 333.765 246.053C295.966 232.407 277.067 215.366 277.067 194.911C277.067 171.832 287.04 148.23 306.994 124.104C345.83 77.4227 378.115 54.0862 403.848 54.0862C426.949 54.0862 438.491 67.191 438.491 93.4177C438.491 108.109 432.197 125.674 419.592 146.137C416.968 150.854 414.087 150.065 410.931 143.77C403.582 128.573 394.133 120.957 382.582 120.957C373.133 120.957 361.977 125.416 349.105 134.327C336.243 143.247 329.82 151.12 329.82 157.93C329.82 165.803 337.701 173.933 353.444 182.321C369.197 190.709 381.802 194.911 391.252 194.911C400.178 194.911 415.39 188.35 436.913 175.228C452.151 165.271 467.372 155.571 482.593 146.128C495.189 139.31 502.812 136.42 505.428 137.475C507.529 138.53 507.529 144.027 505.428 153.993Z" fill="#F6F6F6"/>
<path fillRule="evenodd" clipRule="evenodd" d="M568.445 533.955C581.497 508.457 612.761 498.354 638.28 511.39C663.799 524.426 673.918 555.662 660.867 581.168C647.816 606.666 616.551 616.769 591.032 603.733C565.513 590.696 555.394 559.461 568.445 533.955Z" fill="#F6F6F6"/>
<path fillRule="evenodd" clipRule="evenodd" d="M619.612 435.806C626.138 423.053 641.77 418.001 654.53 424.52C667.289 431.038 672.349 446.655 665.823 459.408C659.297 472.162 643.665 477.213 630.906 470.695C618.146 464.177 613.087 448.559 619.612 435.806Z" fill="#F6F6F6"/>
<path fillRule="evenodd" clipRule="evenodd" d="M501.818 388.996C503.756 375.745 502.632 362.966 498.473 350.676C493.663 337.143 486.237 331.165 476.213 332.743C471.419 333.498 465.237 336.817 457.665 342.683C450.102 348.567 446.655 353.678 447.341 358.044C448.918 368.061 467.072 378.378 501.809 389.004L501.818 388.996ZM485.791 449.1C441.955 434.545 418.22 415.746 414.584 392.641C410.202 364.75 419.06 337.254 441.149 310.118C463.239 282.991 483.278 271.139 501.234 274.578C516.447 277.545 526.076 291.885 530.124 317.589C533.751 340.676 533.031 367.349 527.963 397.607C550.301 406.157 564.741 414.159 571.275 421.621C572.99 432.513 566.739 452.462 552.547 481.484C546.005 474.023 532.002 465.952 510.53 457.273C492.797 492.196 468.504 525.258 437.659 556.434C402.562 591.854 369.608 619.573 338.798 639.591C332.367 644.171 296.301 664.797 230.573 701.444C220.3 707.079 213.406 710.166 209.916 710.715C208.175 710.99 207.232 710.689 207.103 709.823C206.692 707.199 211.965 701.015 222.941 691.255C269.607 652.678 316.435 613.853 363.46 574.779C419.489 527.591 460.263 485.704 485.782 449.1H485.791Z" fill="#F6F6F6"/>
<path fillRule="evenodd" clipRule="evenodd" d="M1881.67 -82.5878C1881.67 -48.6938 1875.31 -23.2818 1862.59 -2.09802C1854.11 12.7307 1843.51 23.3225 1835.03 29.6777C1822.32 36.0328 1801.11 40.2696 1773.55 40.2696C1729.03 40.2696 1684.51 31.7961 1642.1 19.0858C1620.9 38.1512 1595.46 52.9799 1567.9 63.5717C1540.34 76.282 1514.9 84.7556 1493.7 84.7556C1447.06 84.7556 1417.37 65.6901 1402.54 27.5679C1398.29 14.8576 1396.17 -2.08087 1396.17 -21.1463C1396.17 -33.8566 1396.17 -48.6852 1400.41 -65.6322C1402.53 -91.0528 1408.89 -101.645 1415.25 -101.645C1417.37 -101.645 1419.49 -95.2895 1419.49 -82.5792V-59.2771C1423.72 -40.2117 1430.09 -25.3916 1438.57 -16.9181C1449.17 -8.44455 1468.25 -4.20782 1493.69 -4.20782V-2.08942C1523.37 -2.08942 1546.69 -8.44455 1565.77 -16.9181C1553.05 -38.1019 1548.81 -59.2771 1548.81 -82.5792C1548.81 -124.938 1557.29 -163.069 1576.37 -199.082C1589.09 -224.502 1603.93 -245.686 1623.01 -262.624C1620.89 -279.571 1623.01 -300.755 1627.24 -328.285C1629.36 -334.641 1631.49 -338.877 1633.61 -338.877C1635.72 -338.877 1642.09 -336.759 1650.57 -334.641L1733.26 -292.282C1741.74 -285.926 1748.1 -281.69 1748.1 -277.453C1748.1 -271.098 1739.62 -268.979 1726.9 -268.979C1718.42 -268.979 1712.06 -268.979 1705.7 -271.098C1733.26 -245.677 1758.7 -226.612 1782.02 -213.91C1813.83 -196.963 1835.02 -184.261 1843.51 -173.661C1868.95 -150.359 1881.66 -120.71 1881.66 -82.5792L1881.67 -82.5878ZM1843.51 -84.7062C1837.15 -93.1797 1822.32 -105.89 1792.63 -120.719C1762.95 -137.666 1741.75 -152.494 1731.15 -165.205C1731.15 -133.429 1722.67 -95.3067 1705.7 -52.9391C1739.63 -42.3472 1771.43 -38.1104 1798.99 -38.1104C1837.15 -38.1104 1856.24 -44.4656 1856.24 -57.1758C1856.24 -63.531 1852 -72.0045 1843.52 -84.7062H1843.51ZM1701.47 -131.302C1701.47 -150.367 1695.11 -169.433 1680.26 -190.617C1669.66 -209.682 1659.06 -218.147 1650.58 -218.147C1635.74 -218.147 1620.9 -207.555 1599.7 -184.261C1580.62 -160.959 1572.14 -139.775 1572.14 -122.828C1572.14 -105.881 1580.62 -93.1797 1599.7 -80.4695C1612.42 -71.9959 1629.38 -65.6408 1648.46 -63.5224C1682.38 -84.6976 1701.46 -108.008 1701.46 -131.302H1701.47Z" fill="#F6F6F6"/>
<path fillRule="evenodd" clipRule="evenodd" d="M126.439 1124.16C126.439 1192.87 111.124 1244.6 79.7991 1279.63C31.0931 1336.11 -40.7568 1390.89 -135.425 1443.62C-254.952 1509.63 -366.641 1542.62 -470.176 1542.62C-609.116 1542.62 -704.788 1475.27 -757.241 1340.2C-767.462 1313.99 -772.573 1280.32 -772.573 1239.15C-772.573 1212.26 -770.181 1184.71 -766.099 1156.47C-759.29 1115.64 -750.089 1079.92 -738.17 1048.62C-734.423 1039.42 -730.676 1034.66 -727.28 1034.33C-723.533 1034.66 -722.855 1040.79 -724.896 1053.03C-729.655 1072.43 -734.423 1091.48 -739.199 1110.52C-746.694 1144.55 -750.767 1169.73 -750.767 1185.38C-750.767 1241.85 -731.705 1293.23 -694.24 1340.18C-643.168 1402.78 -569.268 1433.74 -472.56 1433.74C-387.418 1433.74 -297.518 1414.01 -202.173 1373.86C-125.203 1342.22 -56.0803 1302.42 5.21381 1254.11C60.7198 1211.57 88.3055 1180.95 88.3055 1162.25C88.3055 1159.52 77.0723 1135.7 54.2542 1090.12C27.3544 1037.04 7.26312 985.332 -5.68512 934.629C-10.7787 917.965 -16.9183 906.738 -23.7268 900.606C-30.5354 894.834 -34.2827 888.367 -34.2827 881.558C-34.2827 876.789 -28.8376 849.233 -18.6161 799.224C-17.2527 790.707 -14.869 786.291 -12.1421 785.956C-9.08081 786.291 -5.3335 788.683 -0.908752 792.757C13.3943 809.087 43.6983 840.382 90.0119 886.661C97.5064 894.482 100.911 900.597 100.911 904.688C100.911 910.126 96.4861 912.853 87.6281 912.519C78.0927 912.853 63.7896 909.791 44.3843 903.668C46.0822 909.791 61.7487 942.099 91.041 1000.62C114.879 1048.94 126.447 1090.11 126.447 1124.13L126.439 1124.16Z" fill="#F6F6F6"/>
<path fillRule="evenodd" clipRule="evenodd" d="M-164.091 376.251C-135.022 376.363 -108.911 393.602 -85.8614 427.959C-62.7003 462.427 -46.6307 507.059 -37.4126 562.309C-36.2378 567.978 -35.7576 571.4 -35.8776 572.463C-34.7029 573.998 -33.9911 573.998 -33.5109 572.463C-32.9193 571.52 -31.6245 568.098 -29.6094 562.309C-24.8846 529.366 -13.5398 480.258 4.53633 414.622C24.276 367.752 45.7735 344.261 69.0546 344.141C81.1025 344.261 93.0389 352.289 104.855 368.104C115.248 382.152 120.333 393.49 120.333 402.101C120.333 408.953 118.558 417.684 114.897 428.31C110.292 442.83 104.855 450.034 98.5869 449.914C95.9886 450.034 90.312 444.726 81.5741 433.979C72.8276 423.353 63.7296 417.924 54.2799 417.804C33.6056 417.924 14.4576 466.561 -3.26689 563.724C-10.9501 605.988 -19.4565 635.731 -28.9062 653.21C-35.5261 665.02 -41.1941 670.921 -45.9189 670.921C-49.9406 670.921 -52.0673 665.603 -52.1873 654.745C-52.0673 637.867 -61.877 604.805 -81.6081 555.696C-101.219 506.587 -115.282 482.145 -123.677 482.033C-129.345 482.153 -132.895 483.808 -134.55 486.87C-135.974 490.061 -140.698 491.596 -148.613 491.476C-157.351 491.596 -168.816 485.224 -183.11 472.239C-197.293 459.486 -204.385 449.1 -204.496 441.304C-204.376 437.762 -198.357 426.072 -186.54 406.123C-174.604 386.286 -167.161 376.371 -164.091 376.251Z" fill="#F6F6F6"/>
<path fillRule="evenodd" clipRule="evenodd" d="M746.643 800.853C746.763 800.45 746.677 799.987 746.565 799.438C745.262 792.448 735.298 784.018 716.553 773.992C695.047 762.954 675.067 759.06 656.622 762.405C617.495 769.798 584.378 818.058 557.204 907.313C568.094 909.474 582.191 908.942 599.496 905.615C629.911 900.04 661.236 884.585 693.503 859.327C722.315 837.003 740.031 817.509 746.634 800.853H746.643ZM782.306 830.545L790.349 873.616C731.388 912.973 668.567 938.822 601.828 951.258C583.683 954.637 565.118 954.766 546.108 951.456C543.089 971.542 539.959 981.842 536.735 982.442C535.629 982.648 534.823 981.37 534.274 978.42C533.177 972.528 533.631 962.733 535.44 948.968C514.372 941.275 501.475 924.826 496.75 899.517C486.031 915.606 473.417 930.246 458.788 943.256C424.128 975.144 382.248 988.514 337.264 996.902L299.259 950.864C334.871 944.32 411.489 926.687 443.353 907.364C462.493 895.76 481.521 878.942 500.429 856.926C502.092 855.091 503.584 854.43 505.051 855.116C506.56 856.068 507.22 858.041 506.903 860.957C506.234 867.081 506.208 872.038 506.903 875.811C509.304 888.693 521.017 898.325 541.846 904.723C559.622 849.319 573.565 811.197 583.683 790.364C605.575 746.282 630.408 721.564 658.114 716.298C683.273 711.701 706.803 716.744 728.687 731.333C747.011 743.726 757.353 756.179 759.685 768.692C762.575 784.155 762.489 797.98 759.274 810.39C755.629 825.065 747.14 841.411 733.934 859.49C744.533 854.293 760.714 844.662 782.289 830.536L782.306 830.545Z" fill="#F6F6F6"/>
<path fillRule="evenodd" clipRule="evenodd" d="M28.2548 66.5049C24.4475 79.9184 14.6977 93.5807 -1.10599 107.457C-17.3385 122.174 -36.0406 133.298 -57.3923 140.837C-65.7358 143.881 -70.6064 145.142 -71.9784 144.748C-72.1585 144.696 -72.2443 144.542 -72.2357 144.285C-71.8755 143.23 -67.8024 140.262 -60.0335 135.374C-21.8661 111.54 -1.27759 94.1982 1.79226 83.409C4.70776 73.1602 1.50935 66.7107 -7.78595 64.0091C-12.931 62.6112 -18.0074 62.7827 -23.0323 64.5837C-26.7024 65.9302 -28.949 66.5735 -29.858 66.5821C-30.201 65.9646 -30.7498 65.4242 -31.4873 64.8324C-30.8613 63.9834 -29.6007 61.3762 -27.5942 57.0451C-16.5753 36.4016 -2.52095 28.4684 14.5604 33.2541C28.8635 37.3708 33.3912 48.4515 28.2548 66.5049Z" fill="#F6F6F6"/>
<path fillRule="evenodd" clipRule="evenodd" d="M180.461 385.265C177.468 374.802 173.584 365.84 169.091 358.67C164.606 351.646 162.059 347.16 161.459 345.213C160.713 342.82 161.459 332.966 163.851 315.633C166.244 299.492 168.19 288.137 169.682 281.559C171.174 275.135 172.975 271.842 175.067 271.696C176.414 271.842 178.36 273.489 180.898 276.482C197.645 296.499 216.793 317.125 238.479 338.198C247.457 347.16 251.796 352.992 251.796 355.385C251.796 357.032 250.45 357.778 247.458 357.623C243.865 357.778 234.295 355.685 218.594 351.5C228.009 373.164 237.288 394.536 246.257 415.6C257.928 443.774 264.753 469.083 266.906 491.527V520.01C265.851 529.975 263.681 541.056 260.32 553.226C254.043 575.645 246.111 592.232 236.542 602.987C199.446 645.123 136.926 691.152 48.9805 741.359C-27.3027 785.296 -72.3214 807.114 -86.0843 807.114C-88.6311 807.114 -126.018 815.931 -198.408 833.564C-275.137 852.243 -323.303 863.153 -342.888 866.137C-363.228 869.276 -375.799 870.769 -380.584 870.769C-382.788 870.769 -383.98 870.623 -384.023 870.048V870.022C-384.023 868.23 -369.96 860.906 -341.997 847.904C-331.827 843.273 -272.745 818.023 -164.614 772.14C-89.5314 740.312 -27.0111 710.869 22.9468 683.828C98.1839 643.33 155.319 607.918 194.207 577.738C224.116 554.573 238.925 538.286 238.925 528.723C238.925 525.438 231.448 507.505 216.339 474.632C198.983 437.573 187.021 407.684 180.444 385.274L180.461 385.265Z" fill="#F6F6F6"/>
</g>
<defs>
<clipPath id="clip0_8_211">
<rect width="3430" height="2125" fill="white" transform="translate(-995 -549)"/>
</clipPath>
</defs>
</svg>
